<?xml version="1.0" encoding="utf-8"?>
<!-- Generator: Adobe Illustrator 23.1.1, SVG Export Plug-In . SVG Version: 6.00 Build 0)  -->
<svg version="1.1" xmlns="http://www.w3.org/2000/svg" xmlns:xlink="http://www.w3.org/1999/xlink" x="0px" y="0px"
	 viewBox="0 0 66.7 66.67" style="enable-background:new 0 0 66.7 66.67;" xml:space="preserve">
<g id="Livello_1">
	<path d="M44.13,33.37c0-0.47-0.44-1.21-0.87-1.47L5.74,8.98C5.44,8.8,5.12,8.71,4.82,8.71c-0.24,0-0.48,0.06-0.69,0.18
		c-0.49,0.27-0.77,0.81-0.77,1.47v7.57c0,0.76,0.28,1.07,0.77,1.37l23.75,14.21L4.12,47.26c-0.47,0.28-0.76,0.61-0.76,1.36v7.57
		c0,0.66,0.28,1.19,0.77,1.47c0.47,0.27,1.08,0.23,1.61-0.1l37.52-22.17c0.44-0.26,0.87-0.99,0.87-1.47V33.37z"/>
</g>
<g id="Isolation_Mode">
	<g>
		<path d="M39.56,6.69c-7.19,0-13.91,2.75-18.98,7.76l8.27,5.05c3.18-2.43,6.88-3.71,10.71-3.71c9.94,0,18.04,8.13,18.04,18.11
			c0,9.9-8.09,17.96-18.04,17.96c-4.12,0-8.02-1.43-11.31-4.13l-8.29,4.9c5.13,5.38,12.07,8.34,19.59,8.34
			c15.22,0,27.14-11.89,27.14-27.07C66.7,18.9,54.53,6.69,39.56,6.69z"/>
		<path d="M44.13,33.37c0-0.47-0.44-1.21-0.87-1.47L5.74,8.98C5.44,8.8,5.12,8.71,4.82,8.71c-0.24,0-0.48,0.06-0.69,0.18
			c-0.49,0.27-0.77,0.81-0.77,1.47v7.57c0,0.76,0.28,1.07,0.77,1.37l23.75,14.21L4.12,47.26c-0.47,0.28-0.76,0.61-0.76,1.36v7.57
			c0,0.66,0.28,1.19,0.77,1.47c0.47,0.27,1.08,0.23,1.61-0.1l37.52-22.17c0.44-0.26,0.87-0.99,0.87-1.47V33.37z"/>
	</g>
</g>
</svg>
