<?xml version="1.0" encoding="utf-8"?>
<!-- Generator: Adobe Illustrator 23.1.1, SVG Export Plug-In . SVG Version: 6.00 Build 0)  -->
<svg version="1.1" id="Livello_1" xmlns="http://www.w3.org/2000/svg" xmlns:xlink="http://www.w3.org/1999/xlink" x="0px" y="0px"
	 viewBox="0 0 456.67 117.5" style="enable-background:new 0 0 456.67 117.5;" xml:space="preserve">
<g>
	<g>
		<path d="M64.84,7.86c-0.64,0-1.03,0.53-1.03,1.03v50.7c0,0.5,0.39,1.03,1.03,1.03h7.05c0.53,0,1.03-0.5,1.03-1.03V41.17h10
			c9.18,0,16.65-7.54,16.65-16.81c0-9.1-7.51-16.5-16.73-16.5H64.84z M82.23,32.67h-9.31V16.43h9.31c4.58,0,8.31,3.52,8.31,7.85
			C90.54,28.91,86.81,32.67,82.23,32.67z"/>
	</g>
	<g>
		<path d="M157.7,39.15l0.44-0.18c6.83-2.75,11.07-8.52,11.07-15.07c0-8.84-7.3-16.04-16.27-16.04h-21.9
			c-0.64,0-1.03,0.53-1.03,1.03v50.7c0,0.5,0.39,1.03,1.03,1.03h7.05c0.53,0,1.03-0.5,1.03-1.03V39.63h9.19l10.3,20.53
			c0.05,0.11,0.27,0.45,0.85,0.45h8.04c0.42,0,0.76-0.17,0.94-0.47c0.19-0.32,0.19-0.75-0.01-1.12L157.7,39.15z M139.19,32.29V16.2
			h12.91c4.34,0,8,3.6,8,7.86c0,4.46-3.67,8.23-8,8.23H139.19z"/>
	</g>
	<g>
		<path d="M360.44,7.86c-0.64,0-1.03,0.53-1.03,1.03v50.7c0,0.5,0.39,1.03,1.03,1.03h31.17c0.64,0,1.03-0.54,1.03-1.03v-6.28
			c0-0.5-0.39-1.03-1.03-1.03h-23.09V38.03h19.34c0.5,0,1.03-0.39,1.03-1.03v-6.36c0-0.53-0.5-1.03-1.03-1.03h-19.34V16.2h23.09
			c0.64,0,1.03-0.53,1.03-1.03V8.89c0-0.5-0.39-1.03-1.03-1.03H360.44z"/>
	</g>
	<g>
		<path d="M230.4,6.69c-7.19,0-13.91,2.75-18.98,7.76l8.27,5.05c3.18-2.43,6.88-3.71,10.71-3.71c9.94,0,18.04,8.13,18.04,18.11
			c0,9.9-8.09,17.96-18.04,17.96c-4.12,0-8.02-1.43-11.31-4.13l-8.29,4.9c5.13,5.38,12.07,8.34,19.59,8.34
			c15.22,0,27.14-11.89,27.14-27.07C257.54,18.9,245.36,6.69,230.4,6.69z"/>
		<path d="M234.96,33.37c0-0.47-0.44-1.21-0.87-1.47L196.58,8.98c-0.3-0.18-0.62-0.28-0.92-0.28c-0.24,0-0.48,0.06-0.69,0.18
			c-0.49,0.27-0.77,0.81-0.77,1.47v7.57c0,0.76,0.28,1.07,0.77,1.37l23.75,14.21l-23.76,13.77c-0.47,0.28-0.76,0.61-0.76,1.36v7.57
			c0,0.66,0.28,1.19,0.77,1.47c0.47,0.27,1.08,0.23,1.61-0.1l37.52-22.17c0.44-0.26,0.87-0.99,0.87-1.47V33.37z"/>
	</g>
	<path d="M285.8,7.86c-0.51,0-0.95,0.48-0.95,1.03v50.7c0,0.55,0.45,1.03,0.95,1.03h18.15c14.59,0,26.45-11.87,26.45-26.46
		c0-14.5-11.87-26.3-26.45-26.3H285.8z M303.03,52.13h-9.16V16.28h9.16c10.06,0,17.65,7.69,17.65,17.88
		C320.68,44.4,313.09,52.13,303.03,52.13z"/>
</g>
<g>
	<path d="M3.47,106.11V91.43h9.02c6.02,0,8.44,1.34,8.44,4.68c0,3.36-2.42,4.7-8.44,4.7H6.91v5.3H3.47z M6.97,93.91v4.4h6.12
		c2.88,0,4.04-0.62,4.04-2.2s-1.16-2.2-4.04-2.2H6.97z"/>
	<path d="M32.91,95.57v2.96c-1.16-0.26-2.72-0.26-3.92,0.04c-0.86,0.22-2.26,0.9-2.74,1.8l-0.02-0.18v5.92h-3.36v-10h3.36v1.88
		c0.5-0.8,1.44-1.54,2.08-1.88C29.59,95.43,31.51,95.19,32.91,95.57z"/>
	<path d="M34.19,101.13c0-3.54,3.34-5.86,8.16-5.86c4.68,0,8.16,2.32,8.16,5.86c0,3.36-3.48,5.58-8.16,5.58
		C37.55,106.71,34.19,104.49,34.19,101.13z M47.02,101.13c0-1.96-1.86-3.26-4.66-3.26s-4.66,1.3-4.66,3.26c0,1.92,1.86,3.2,4.66,3.2
		S47.02,103.05,47.02,101.13z"/>
	<path d="M67.46,91.11v15H64.1v-1.32c-0.98,1.2-3.06,1.92-5.16,1.92c-4.12,0-6.84-2.16-6.86-5.54c-0.02-3.24,2.74-5.42,6.86-5.42
		c2.24,0,4.28,0.84,5.16,1.84v-6.48H67.46z M64.1,102.93v-3.46c-0.72-0.86-2.56-1.42-4.64-1.42c-2.34,0-3.9,1.24-3.9,3.12
		c0,1.88,1.56,3.14,3.9,3.14C61.62,104.31,63.46,103.77,64.1,102.93z"/>
	<path d="M85.22,106.11h-3.36v-1.36c-0.96,1.1-2.32,1.96-5.06,1.96c-5.6,0-6.44-2.86-6.44-6.78v-3.82h3.36v3.82
		c0,2.98,1,4.36,3.6,4.36c2.4,0,3.62-0.7,4.54-1.7v-6.48h3.36V106.11z"/>
	<path d="M87.92,106.11v-2.04l9.06-5.92h-9.2v-2.42h14.58v2.04l-9.06,5.92h9.2v2.42H87.92z"/>
	<path d="M106.88,94.39c-1.08,0-1.78-0.56-1.78-1.64c0-1.08,0.7-1.64,1.78-1.64s1.78,0.56,1.78,1.64
		C108.66,93.83,107.96,94.39,106.88,94.39z M105.2,96.11v10h3.36v-10H105.2z"/>
	<path d="M110.84,101.13c0-3.54,3.34-5.86,8.16-5.86c4.68,0,8.16,2.32,8.16,5.86c0,3.36-3.48,5.58-8.16,5.58
		C114.2,106.71,110.84,104.49,110.84,101.13z M123.66,101.13c0-1.96-1.86-3.26-4.66-3.26s-4.66,1.3-4.66,3.26
		c0,1.92,1.86,3.2,4.66,3.2S123.66,103.05,123.66,101.13z"/>
	<path d="M145.12,102.29v3.82h-3.36v-3.82c0-2.98-1.2-4.36-3.8-4.36c-1.98,0-3.82,0.8-5.14,1.94v6.24h-3.36v-10h3.36v1.58
		c1.32-1.26,3.32-2.36,5.66-2.36C144.08,95.33,145.12,98.37,145.12,102.29z"/>
	<path d="M150.75,101.97c0,1.68,2.06,2.14,4.84,2.14c2.28,0,4.66-0.38,5.58-1.02l0.96,2.24c-1.4,0.8-3.32,1.26-6.54,1.26
		c-5.02,0-8.34-2.08-8.34-5.28c0-3.4,3-6.04,7.96-6.04c5.66,0,8.12,2.84,8.12,6.7H150.75z M159.83,100.09
		c0-1.46-2.04-2.16-4.54-2.16c-2.48,0-4.5,0.72-4.5,2.16H159.83z"/>
	<path d="M186.21,96.71l-1.1,2.16c-0.94-0.46-2.46-1.08-5.44-1.24c-1.78-0.1-4.18-0.14-4.18,0.92c0,1.04,2.3,0.86,5.98,1.12
		c2.86,0.2,5.32,0.54,5.38,3.26c0,2.62-3.28,3.72-7.34,3.72c-2.94,0-5.96-0.64-7.82-1.86l1.22-2.24c1.62,1.04,3.88,1.68,6.46,1.68
		c2.18,0,4.16-0.2,4.16-1.06c0-1.06-1.1-0.74-5.64-1.06c-3.62-0.26-5.34-1.74-5.34-3.34c0-2.16,2.5-3.7,7.22-3.48
		C183.33,95.45,185.09,96.23,186.21,96.71z"/>
	<path d="M196.47,95.27c3.08,0,5.58,0.9,6.96,1.68l-1.16,2.42c-0.9-0.72-3.42-1.5-5.8-1.5c-2.78,0-4.64,1.24-4.64,3.12
		s1.86,3.12,4.64,3.12c2.38,0,4.88-0.5,5.78-1.22l1.16,2.44c-1.4,0.78-3.86,1.38-6.94,1.38c-4.7,0-8.14-2.28-8.14-5.72
		S191.76,95.27,196.47,95.27z"/>
	<path d="M207.38,94.39c-1.08,0-1.78-0.56-1.78-1.64c0-1.08,0.7-1.64,1.78-1.64s1.78,0.56,1.78,1.64
		C209.16,93.83,208.46,94.39,207.38,94.39z M205.7,96.11v10h3.36v-10H205.7z"/>
	<path d="M214.83,101.97c0,1.68,2.06,2.14,4.84,2.14c2.28,0,4.66-0.38,5.58-1.02l0.96,2.24c-1.4,0.8-3.32,1.26-6.54,1.26
		c-5.02,0-8.34-2.08-8.34-5.28c0-3.4,3-6.04,7.96-6.04c5.66,0,8.12,2.84,8.12,6.7H214.83z M223.91,100.09
		c0-1.46-2.04-2.16-4.54-2.16c-2.48,0-4.5,0.72-4.5,2.16H223.91z"/>
	<path d="M245.33,102.29v3.82h-3.36v-3.82c0-2.98-1.2-4.36-3.8-4.36c-1.98,0-3.82,0.8-5.14,1.94v6.24h-3.36v-10h3.36v1.58
		c1.32-1.26,3.32-2.36,5.66-2.36C244.29,95.33,245.33,98.37,245.33,102.29z"/>
	<path d="M254.23,106.83c-2.78,0-4.88-1.86-4.88-4.26v-4.86h-2.54v-2.48h2.66l0.36-2.84h2.9v2.84h5.16v2.48h-5.18v4.46
		c0,1.5,0.66,2.14,2.22,2.14c0.92,0,2.26-0.36,3.02-0.6v2.52C256.95,106.59,255.33,106.83,254.23,106.83z"/>
	<path d="M261.85,94.39c-1.08,0-1.78-0.56-1.78-1.64c0-1.08,0.7-1.64,1.78-1.64s1.78,0.56,1.78,1.64
		C263.63,93.83,262.93,94.39,261.85,94.39z M260.17,96.11v10h3.36v-10H260.17z"/>
	<path d="M276.92,91.87l-0.66,2.42l-0.02,0.08c-1.14-1.46-3.04-1.7-4.3-0.98c-1.14,0.64-1.28,1.78-1.3,2.48h4.56v2.4h-4.56l-0.04,7
		v0.84h-3.22v-0.8l0.02-7.02h-1.82v-2.4h1.82c0.04-2.02,1-3.94,3-4.8C272.56,90.17,275.18,90.49,276.92,91.87z"/>
	<path d="M280.46,94.39c-1.08,0-1.78-0.56-1.78-1.64c0-1.08,0.7-1.64,1.78-1.64s1.78,0.56,1.78,1.64
		C282.24,93.83,281.54,94.39,280.46,94.39z M278.78,96.11v10h3.36v-10H278.78z"/>
	<path d="M292.56,95.27c3.08,0,5.58,0.9,6.96,1.68l-1.16,2.42c-0.9-0.72-3.42-1.5-5.8-1.5c-2.78,0-4.64,1.24-4.64,3.12
		s1.86,3.12,4.64,3.12c2.38,0,4.88-0.5,5.78-1.22l1.16,2.44c-1.4,0.78-3.86,1.38-6.94,1.38c-4.7,0-8.14-2.28-8.14-5.72
		S287.86,95.27,292.56,95.27z"/>
	<path d="M313.26,106.13v-1.48c-1.2,1.1-3.96,1.82-6.14,1.82c-3.94,0-5.96-0.82-5.96-3.26c0-2.1,2.02-3.3,7.38-3.3h4.72
		c-0.06-1.74-2.06-2-4.56-2c-2.02,0-4.86,0.6-6.28,1.72l-0.04-0.12l-0.76-2.32c1.1-0.94,4.26-1.88,7.08-1.88
		c4.98,0,7.76,1.9,7.76,4.76v4l0.4,2v0.06H313.26z M313.26,101.93v-0.18H308c-2.56,0-3.42,0.36-3.42,1.26c0,0.8,0.82,1.12,3.44,1.12
		C311.08,104.13,313.26,103.29,313.26,101.93z"/>
	<path d="M328.09,94.39c-1.08,0-1.78-0.56-1.78-1.64c0-1.08,0.7-1.64,1.78-1.64s1.78,0.56,1.78,1.64
		C329.87,93.83,329.17,94.39,328.09,94.39z M326.41,96.11v10h3.36v-10H326.41z"/>
	<path d="M348.46,102.29v3.82h-3.36v-3.82c0-2.98-1.2-4.36-3.8-4.36c-1.98,0-3.82,0.8-5.14,1.94v6.24h-3.36v-10h3.36v1.58
		c1.32-1.26,3.32-2.36,5.66-2.36C347.42,95.33,348.46,98.37,348.46,102.29z"/>
	<path d="M358.32,106.11v-14.6h9.42c6.6,0,10.04,2.42,10.04,7.06c0,4.96-3.44,7.54-10.04,7.54H358.32z M361.76,94.11v9.32h5.98
		c4.14,0,6.3-1.64,6.3-4.8c0-2.98-2.16-4.52-6.3-4.52H361.76z"/>
	<path d="M382.81,101.97c0,1.68,2.06,2.14,4.84,2.14c2.28,0,4.66-0.38,5.58-1.02l0.96,2.24c-1.4,0.8-3.32,1.26-6.54,1.26
		c-5.02,0-8.34-2.08-8.34-5.28c0-3.4,3-6.04,7.96-6.04c5.66,0,8.12,2.84,8.12,6.7H382.81z M391.89,100.09
		c0-1.46-2.04-2.16-4.54-2.16c-2.48,0-4.5,0.72-4.5,2.16H391.89z"/>
	<path d="M411.16,96.71l-1.1,2.16c-0.94-0.46-2.46-1.08-5.44-1.24c-1.78-0.1-4.18-0.14-4.18,0.92c0,1.04,2.3,0.86,5.98,1.12
		c2.86,0.2,5.32,0.54,5.38,3.26c0,2.62-3.28,3.72-7.34,3.72c-2.94,0-5.96-0.64-7.82-1.86l1.22-2.24c1.62,1.04,3.88,1.68,6.46,1.68
		c2.18,0,4.16-0.2,4.16-1.06c0-1.06-1.1-0.74-5.64-1.06c-3.62-0.26-5.34-1.74-5.34-3.34c0-2.16,2.5-3.7,7.22-3.48
		C408.28,95.45,410.04,96.23,411.16,96.71z"/>
	<path d="M415.8,94.39c-1.08,0-1.78-0.56-1.78-1.64c0-1.08,0.7-1.64,1.78-1.64s1.78,0.56,1.78,1.64
		C417.58,93.83,416.88,94.39,415.8,94.39z M414.11,96.11v10h3.36v-10H414.11z"/>
	<path d="M434.6,96.11v9.1c0,3.62-2.08,5.08-7.26,5.16c-2.7,0.04-4.54-0.2-6.44-0.86v-2.58c2.52,0.92,4.36,1.22,6.44,1.06
		c2.96-0.22,4.14-0.94,4.12-2.5v-0.48c-1,1.02-2.96,1.5-5.02,1.5c-4,0-6.66-1.96-6.64-5.22c0.02-3.38,2.64-5.54,6.64-5.54
		c1.96,0,3.9,0.66,4.88,1.8l-0.02-1.44H434.6z M431.42,103.05l-0.06-3.6c-0.68-0.78-2.4-1.3-4.42-1.3c-2.26,0-3.78,1.26-3.78,3.14
		c0,1.88,1.52,3.12,3.78,3.12C428.88,104.41,430.62,103.87,431.42,103.05z"/>
	<path d="M453.08,102.29v3.82h-3.36v-3.82c0-2.98-1.2-4.36-3.8-4.36c-1.98,0-3.82,0.8-5.14,1.94v6.24h-3.36v-10h3.36v1.58
		c1.32-1.26,3.32-2.36,5.66-2.36C452.04,95.33,453.08,98.37,453.08,102.29z"/>
</g>
<path d="M234.96,33.37c0-0.47-0.44-1.21-0.87-1.47L196.58,8.98c-0.3-0.18-0.62-0.28-0.92-0.28c-0.24,0-0.48,0.06-0.69,0.18
	c-0.49,0.27-0.77,0.81-0.77,1.47v7.57c0,0.76,0.28,1.07,0.77,1.37l23.75,14.21l-23.76,13.77c-0.47,0.28-0.76,0.61-0.76,1.36v7.57
	c0,0.66,0.28,1.19,0.77,1.47c0.47,0.27,1.08,0.23,1.61-0.1l37.52-22.17c0.44-0.26,0.87-0.99,0.87-1.47V33.37z"/>
</svg>
