<?xml version="1.0" encoding="utf-8"?>
<!-- Generator: Adobe Illustrator 22.1.0, SVG Export Plug-In . SVG Version: 6.00 Build 0)  -->
<svg version="1.1" id="Layer_1" xmlns="http://www.w3.org/2000/svg" xmlns:xlink="http://www.w3.org/1999/xlink" x="0px" y="0px"
	 viewBox="0 0 14.5 4.8" style="enable-background:new 0 0 14.5 4.8;" xml:space="preserve">
<style type="text/css">
	.st0{fill:#231F20;}
	.st1{fill:#8FB6CE;}
</style>
<g>
	<path class="st0" d="M2.1,3.9L2.1,3.9l0,0.2h0V3.9z M2,4.1l0-0.2h0L2,4.1L2,4.1z M2.2,3.9L2.2,3.9l0,0.2h0L2.2,3.9z M1.9,4.1l0-0.2
		h0L1.9,4.1L1.9,4.1z M2.2,3.9L2.2,3.9l0.1,0.2h0L2.2,3.9z M1.8,4.1l0-0.2h0L1.8,4.1L1.8,4.1z M2.3,3.9L2.3,3.9l0.1,0.2h0L2.3,3.9z
		 M1.7,4.1l0-0.2h0L1.7,4.1L1.7,4.1z M2.4,3.9L2.4,3.9l0.1,0.2l0,0L2.4,3.9z M1.6,4.1l0-0.2l0,0L1.6,4.1L1.6,4.1z M2.5,3.9L2.5,3.9
		l0.1,0.2l0,0L2.5,3.9z M1.5,4l0-0.2l0,0L1.5,4L1.5,4z M2.6,3.9L2.6,3.9L2.7,4l0,0L2.6,3.9z M1.4,4l0.1-0.2l0,0L1.4,4L1.4,4z
		 M2.7,3.8L2.7,3.8L2.8,4l0,0L2.7,3.8z M1.3,4l0.1-0.2l0,0L1.3,4L1.3,4z M2.7,3.8L2.7,3.8L2.8,4l0,0L2.7,3.8z M1.2,3.9l0.1-0.2l0,0
		L1.2,3.9L1.2,3.9z M2.8,3.8L2.8,3.8l0.1,0.2h0L2.8,3.8z M1.1,3.9l0.1-0.2l0,0L1.1,3.9L1.1,3.9z M2.9,3.7L2.9,3.7L3,3.9l0,0L2.9,3.7
		z M1,3.8l0.1-0.2l0,0L1,3.8L1,3.8z M3,3.7L3,3.7l0.1,0.1l0,0L3,3.7z M1,3.8l0.1-0.2l0,0L1,3.8L1,3.8z M3,3.6L3,3.6l0.1,0.1l0,0
		L3,3.6z M0.9,3.8L1,3.6l0,0L0.9,3.8L0.9,3.8z M3.1,3.6L3.1,3.6l0.1,0.1l0,0L3.1,3.6z M0.8,3.7l0.1-0.2l0,0L0.8,3.7L0.8,3.7z
		 M3.2,3.5L3.2,3.5l0.1,0.1l0,0L3.2,3.5z M0.7,3.6l0.1-0.1l0,0L0.7,3.6L0.7,3.6z M3.3,3.5L3.3,3.5l0.1,0.1l0,0L3.3,3.5z M0.7,3.6
		l0.1-0.1l0,0L0.7,3.6L0.7,3.6z M3.3,3.4L3.3,3.4l0.1,0.1l0,0L3.3,3.4z M0.6,3.5l0.1-0.1l0,0L0.6,3.5L0.6,3.5z M3.4,3.4L3.4,3.4
		l0.1,0.1l0,0L3.4,3.4z M0.5,3.4l0.1-0.1l0,0L0.5,3.4L0.5,3.4z M3.5,3.3L3.5,3.3l0.2,0.1l0,0L3.5,3.3z M0.5,3.4l0.1-0.1l0,0L0.5,3.4
		L0.5,3.4z M3.5,3.2L3.5,3.2l0.2,0.1l0,0L3.5,3.2z M0.4,3.3l0.1-0.1l0,0L0.4,3.3L0.4,3.3z M3.6,3.2L3.6,3.2l0.2,0.1l0,0L3.6,3.2z
		 M0.3,3.2l0.2-0.1l0,0L0.3,3.2L0.3,3.2z M3.6,3.1L3.6,3.1l0.2,0.1l0,0L3.6,3.1z M0.3,3.1L0.5,3l0,0L0.3,3.1L0.3,3.1z M3.7,3L3.7,3
		l0.2,0.1l0,0L3.7,3z M0.2,3L0.4,3l0,0L0.2,3L0.2,3z M3.7,3L3.7,3L3.9,3l0,0L3.7,3z M0.2,3l0.2-0.1l0,0L0.2,3L0.2,3z M3.7,2.9
		L3.7,2.9l0.2,0v0L3.7,2.9z M0.2,2.9l0.2-0.1l0,0L0.2,2.9L0.2,2.9z M3.8,2.8L3.8,2.8l0.2,0l0,0L3.8,2.8z M0.1,2.8l0.2-0.1l0,0
		L0.1,2.8L0.1,2.8z M3.8,2.7L3.8,2.7l0.2,0l0,0L3.8,2.7z M0.1,2.7l0.2-0.1l0,0L0.1,2.7L0.1,2.7z M3.8,2.6L3.8,2.6l0.2,0v0L3.8,2.6z
		 M0.1,2.6l0.2,0l0,0L0.1,2.6L0.1,2.6z M3.9,2.5L3.9,2.5l0.2,0l0,0L3.9,2.5z M0.1,2.5l0.2,0v0L0.1,2.5L0.1,2.5z M3.9,2.5L3.9,2.5
		l0.2,0l0,0L3.9,2.5z M0,2.4l0.2,0l0,0H0L0,2.4z M3.9,2.4L3.9,2.4h0.2l0,0L3.9,2.4z M0,2.3l0.2,0v0H0L0,2.3z M3.9,2.3L3.9,2.3l0.2,0
		v0L3.9,2.3z M0,2.2l0.2,0v0L0,2.2L0,2.2z M3.9,2.2L3.9,2.2l0.2,0v0L3.9,2.2z M0,2.1l0.2,0v0L0,2.1L0,2.1z M3.9,2.1L3.9,2.1l0.2,0v0
		L3.9,2.1z M0,2.1L0,2.1l0.2,0v0L0,2.1z M3.9,2h0.2v0L3.9,2L3.9,2z M0,2L0,2l0.2,0v0L0,2z M3.9,1.9l0.2,0v0L3.9,1.9L3.9,1.9z M0,1.9
		L0,1.9l0.2,0v0L0,1.9z M3.9,1.8l0.2,0v0L3.9,1.8L3.9,1.8z M0,1.8L0,1.8l0.2,0v0L0,1.8z M3.9,1.8l0.2,0l0,0H3.9L3.9,1.8z M0,1.7
		L0,1.7h0.2l0,0L0,1.7z M3.9,1.7l0.2,0l0,0L3.9,1.7L3.9,1.7z M0.1,1.6L0.1,1.6l0.2,0l0,0L0.1,1.6z M3.9,1.6l0.2,0l0,0L3.9,1.6
		L3.9,1.6z M0.1,1.5L0.1,1.5l0.2,0l0,0L0.1,1.5z M3.8,1.5l0.2,0l0,0L3.8,1.5L3.8,1.5z M0.1,1.4L0.1,1.4l0.2,0v0L0.1,1.4z M3.8,1.4
		L4,1.4l0,0L3.8,1.4L3.8,1.4z M0.1,1.3L0.1,1.3l0.2,0l0,0L0.1,1.3z M3.8,1.3L4,1.3l0,0L3.8,1.3L3.8,1.3z M0.2,1.2L0.2,1.2l0.2,0.1
		l0,0L0.2,1.2z M3.8,1.2l0.2-0.1l0,0L3.8,1.2L3.8,1.2z M0.2,1.1L0.2,1.1l0.2,0.1l0,0L0.2,1.1z M3.7,1.2l0.2-0.1l0,0L3.7,1.2L3.7,1.2
		z M0.3,1.1L0.3,1.1l0.2,0.1l0,0L0.3,1.1z M3.7,1.1L3.8,1l0,0L3.7,1.1L3.7,1.1z M0.3,1L0.3,1L0.5,1l0,0L0.3,1z M3.6,1l0.2-0.1l0,0
		L3.6,1L3.6,1z M0.4,0.9L0.4,0.9L0.5,1l0,0L0.4,0.9z M3.6,0.9l0.2-0.1l0,0L3.6,0.9L3.6,0.9z M0.4,0.8L0.4,0.8l0.2,0.1l0,0L0.4,0.8z
		 M3.5,0.9l0.1-0.1l0,0L3.5,0.9L3.5,0.9z M0.5,0.7L0.5,0.7l0.2,0.1l0,0L0.5,0.7z M3.5,0.8l0.1-0.1l0,0L3.5,0.8L3.5,0.8z M0.5,0.7
		L0.5,0.7l0.2,0.1l0,0L0.5,0.7z M3.4,0.8l0.1-0.1l0,0L3.4,0.8L3.4,0.8z M0.6,0.6L0.6,0.6l0.1,0.1l0,0L0.6,0.6z M3.3,0.7l0.1-0.1l0,0
		L3.3,0.7L3.3,0.7z M0.7,0.5L0.7,0.5l0.1,0.1l0,0L0.7,0.5z M3.3,0.6l0.1-0.1l0,0L3.3,0.6L3.3,0.6z M0.8,0.5L0.8,0.5l0.1,0.1l0,0
		L0.8,0.5z M3.2,0.6l0.1-0.1l0,0L3.2,0.6L3.2,0.6z M0.8,0.4L0.8,0.4L1,0.5l0,0L0.8,0.4z M3.1,0.5l0.1-0.2l0,0L3.1,0.5L3.1,0.5z
		 M0.9,0.4L0.9,0.4L1,0.5l0,0L0.9,0.4z M3.1,0.5l0.1-0.2l0,0L3.1,0.5L3.1,0.5z M1,0.3L1,0.3l0.1,0.1l0,0L1,0.3z M3,0.4l0.1-0.2l0,0
		L3,0.4L3,0.4z M1.1,0.2L1.1,0.2l0.1,0.2l0,0L1.1,0.2z M2.9,0.4L3,0.2l0,0L2.9,0.4L2.9,0.4z M1.1,0.2L1.1,0.2l0.1,0.2l0,0L1.1,0.2z
		 M2.8,0.3l0.1-0.2l0,0L2.8,0.3L2.8,0.3z M1.2,0.2L1.2,0.2l0.1,0.2l0,0L1.2,0.2z M2.8,0.3l0.1-0.2l0,0L2.8,0.3L2.8,0.3z M1.3,0.1
		L1.3,0.1l0.1,0.2l0,0L1.3,0.1z M2.7,0.3l0.1-0.2l0,0L2.7,0.3L2.7,0.3z M1.4,0.1L1.4,0.1l0.1,0.2l0,0L1.4,0.1z M2.6,0.3l0-0.2l0,0
		L2.6,0.3L2.6,0.3z M1.5,0.1L1.5,0.1l0.1,0.2l0,0L1.5,0.1z M2.5,0.2l0-0.2l0,0L2.5,0.2L2.5,0.2z M1.6,0.1L1.6,0.1l0.1,0.2l0,0
		L1.6,0.1z M2.4,0.2l0-0.2l0,0L2.4,0.2L2.4,0.2z M1.7,0L1.7,0l0.1,0.2l0,0L1.7,0z M2.3,0.2l0-0.2l0,0L2.3,0.2L2.3,0.2z M1.8,0L1.8,0
		l0,0.2h0L1.8,0z M2.2,0.2l0-0.2h0L2.2,0.2L2.2,0.2z M1.9,0L1.9,0l0,0.2h0L1.9,0z M2.2,0.2l0-0.2h0L2.2,0.2L2.2,0.2z M2,0L2,0l0,0.2
		h0V0z M2.1,0.2V0h0L2.1,0.2L2.1,0.2z"/>
	<polyline class="st1" points="3.2,2.2 3.2,2.2 3.2,2.2 3.2,2.2 	"/>
	<path class="st1" d="M3.2,2.2L3.2,2.2L3.2,2.2z"/>
	<path class="st0" d="M2.1,3.4L1.8,3.3l0,0V3.2l0,0l0,0l0,0l0,0l0,0l0,0l0,0l0,0l0,0l0,0l0,0l0.3-0.1l0-0.1c0,0,0,0,0-0.1l0,0V2.8
		c0,0,0,0,0,0l0,0c0,0,0,0,0,0c0,0-0.1,0-0.1,0c-0.1,0-0.1,0-0.1,0s0,0,0,0c-0.1,0-0.2-0.2-0.2-0.2l0,0v0h0c0,0,0,0,0.1,0.1
		c0,0,0-0.2,0-0.2c0,0,0,0,0,0c0,0,0,0,0,0c0,0,0,0,0,0s0,0,0,0c0,0.1,0,0.2,0,0.2l0,0l0,0c0,0,0.1,0.1,0.1,0.1c0,0,0.1-0.2,0.1-0.3
		c0,0,0-0.1,0-0.2l0,0c0,0,0,0,0,0c0,0,0,0,0,0c0,0.1,0,0.2,0,0.2c0,0.1-0.1,0.2-0.1,0.3c0,0,0.1,0,0.1,0c0,0,0.1,0,0.1,0
		c0,0,0,0,0,0c0,0,0,0,0,0s0,0,0,0c0,0,0-0.1,0-0.1c0,0,0,0,0-0.1v0c0,0,0,0,0,0c0,0,0,0,0,0v0c0,0,0,0,0,0c0,0,0,0,0,0c0,0,0,0,0,0
		s0,0,0,0c0,0,0,0,0,0l0,0c0,0,0,0,0,0s0,0,0,0c0,0,0,0,0,0s0,0,0,0h0c0,0,0,0,0,0l0,0h0c0,0,0,0,0,0l0,0c0,0,0,0,0,0v0l0,0l0,0
		c0,0,0-0.1,0-0.1c0,0,0,0,0,0l0,0c0,0,0,0,0-0.1c0,0,0-0.1,0-0.1c0,0,0-0.1,0-0.1c0,0,0,0,0,0c0,0,0-0.1,0-0.2c0,0,0,0,0,0l0,0
		c0,0.1,0,0.2,0,0.2c0,0,0,0,0,0c0,0,0,0.1,0,0.1c0,0,0.1,0,0.1,0s0,0,0,0c0,0,0,0,0,0c0,0-0.1,0-0.1,0.1c0,0,0,0,0,0.1l0,0l0,0l0,0
		c0,0,0,0,0,0s0,0,0,0s0,0,0,0c0-0.1,0.1-0.1,0.1-0.1c0,0,0,0,0,0h0c0,0,0,0,0,0c0,0,0-0.1,0-0.1v0c0,0,0-0.1,0.1-0.1c0,0,0,0,0,0
		l0,0c0-0.1,0-0.1,0-0.1c0,0,0,0,0,0c0,0,0,0,0,0l0,0c0,0,0,0,0,0v0l0,0c0,0,0,0,0,0L2.2,1.5c0,0,0,0,0,0c0,0,0,0,0,0c0,0,0,0,0,0
		s0,0,0,0l0,0c0,0,0,0,0,0c0,0,0,0,0-0.1c-0.1,0-0.1,0-0.1,0c0,0,0,0,0,0c0,0,0,0,0,0s0,0,0,0c0,0,0,0.1,0,0.1c0,0,0,0,0,0
		c0,0-0.1,0-0.1,0c0,0,0,0,0,0c0,0-0.1,0.1-0.1,0.3c0,0,0,0,0,0.1c0,0,0,0,0,0c0,0,0,0,0,0c0,0,0,0,0,0l0,0c0,0,0,0,0,0s0,0,0,0
		c0,0,0,0,0,0s0,0,0.1,0h0c0,0,0.1,0,0.1,0c0,0,0,0,0.1,0c0,0,0,0,0,0c0,0,0,0,0,0V1.6c0,0,0,0,0,0s0,0,0,0v0.2c0,0,0,0,0,0
		c0,0,0,0,0,0c0,0,0,0,0,0c0,0,0,0,0,0.1c0,0,0,0,0,0c0,0,0,0,0,0c0,0,0,0,0,0c0,0,0,0,0,0.1c0,0,0,0,0,0.1c0,0,0,0,0,0h0
		c0,0,0,0,0,0c0,0,0,0,0,0c0,0,0,0,0,0c0,0,0,0,0,0c0,0-0.1,0-0.1,0c0,0,0,0,0,0l0,0v0h0c0,0,0,0,0,0c0,0,0,0,0.1,0c0,0,0,0,0,0
		s0,0,0,0l0,0v0v0c0,0,0,0,0,0l0,0l0,0h0c0,0,0,0,0,0c0,0,0,0,0,0l0,0l0,0l0,0c0,0,0,0,0,0c0,0,0,0,0,0l0,0l0,0l0,0c0,0,0,0,0,0h0
		l0,0h0c0,0,0,0,0,0c0,0,0-0.1,0-0.1v0c0,0,0,0,0,0c0,0,0,0,0,0h0h0c0,0,0,0,0,0s0,0,0,0l0,0c0,0,0,0,0,0l-0.1,0c0,0,0,0.1,0,0.1
		s0,0,0,0l0,0c0,0,0,0.2-0.1,0.2l0,0l0,0c0,0-0.1,0.1-0.1,0.1c0,0,0,0.1,0,0.1c0,0,0,0.1,0,0.2c0,0,0,0.1,0,0.1s0,0,0,0.1
		c0,0,0,0,0,0l0,0l0,0c0,0,0,0,0,0.1c0,0,0,0,0,0.1s0,0.1,0,0.1c0,0,0,0-0.1,0.1c0,0,0,0-0.1,0c0,0-0.1,0-0.1,0c0,0-0.1,0-0.2,0
		c0,0-0.1-0.1-0.2-0.1C1.1,3.1,1,3,1,3c0,0,0,0-0.1,0l0,0C0.9,3,0.8,3,0.8,3s0,0,0,0l0,0c0,0,0,0,0,0c0,0,0,0,0,0c0,0,0,0,0,0
		s0,0,0,0c0,0,0,0,0,0l0,0v0c0,0,0,0,0,0s0,0,0,0s0,0,0,0l0,0l0,0l0,0c0,0,0,0,0,0c0,0,0,0,0,0l0,0l0,0v0c0,0,0,0,0,0
		c0,0,0-0.1,0-0.1c0,0,0,0,0,0c0,0,0-0.1,0.1-0.1c0,0,0-0.1,0-0.1s0,0,0,0c0,0-0.1-0.1-0.1-0.1c0,0,0,0,0,0l0,0c0,0,0-0.1,0-0.1
		c0,0-0.1,0-0.1,0h0l0,0c-0.1,0-0.1,0-0.1-0.1c0,0,0-0.1,0-0.1c0,0,0-0.1,0.1-0.1c0,0,0,0,0,0c0,0,0,0,0,0c0,0,0,0-0.1,0
		c0,0,0,0,0,0c0,0,0,0-0.1,0c0,0,0,0-0.1,0c0,0,0,0,0,0c0,0,0,0,0,0l-0.1,0c0,0,0,0,0,0c0,0,0,0,0,0S0.4,2,0.4,2c0-0.1,0-0.2,0-0.2
		c0-0.1,0.1-0.2,0.1-0.2c0,0,0-0.1,0-0.1s0,0,0,0c0,0,0,0,0,0s0,0,0-0.1c0,0,0,0,0,0s0.1-0.1,0.1-0.1c0.1-0.1,0.1-0.1,0.2-0.1
		c0,0,0,0,0,0C0.7,1,0.7,1,0.8,1c0,0,0.1-0.1,0.1-0.1c0,0,0.1,0,0.2-0.1c0,0,0,0,0.1,0c0,0,0.1,0,0.1,0c0,0,0,0,0,0c0,0,0,0,0,0
		c0,0,0,0,0.1,0c0,0,0,0,0-0.1h0c0,0,0.1-0.1,0.1-0.1c0,0,0.1,0,0.1,0c0,0,0.1,0,0.1,0c0,0,0,0,0,0c0.1,0,0.1,0,0.1,0h0
		c0,0,0.1,0.1,0.1,0.1c0,0,0,0,0,0.1s0,0,0,0.1s0,0,0,0c0,0,0,0,0,0s0,0,0,0c0,0,0,0,0,0c0,0,0,0.1,0,0.1c0,0,0,0,0,0s0,0,0,0l0,0
		c0,0,0,0,0,0c0,0,0,0,0,0l0,0c0,0,0,0,0,0l0,0c0,0,0,0,0,0l0,0c0,0,0,0,0,0.1l0,0v0c0,0,0,0,0,0c0,0,0,0,0,0c0,0,0.1,0,0.1,0.1l0,0
		l0,0h0l0,0c0,0,0,0,0,0l0,0c0,0,0,0,0,0c0,0,0,0,0,0l0,0l0,0c0,0,0,0,0,0c0,0,0,0,0,0v0c0,0,0,0,0,0c0,0,0,0,0,0c0,0,0,0-0.1,0l0,0
		c0,0-0.1,0-0.1,0c-0.1,0-0.1-0.1-0.1-0.1c0,0,0,0,0,0s0,0,0,0l-0.1,0c0,0,0,0,0,0c0,0,0.1,0.1,0.1,0.2l0,0c0,0,0,0,0,0
		c0,0.1,0,0.1,0,0.2c0,0,0,0.1,0,0.1l0,0c0,0,0,0,0,0c0,0,0,0,0,0s0,0,0,0c0,0,0,0,0.1,0c0,0,0,0,0-0.1c0-0.2,0.1-0.3,0.1-0.3
		c0,0,0,0,0,0c0,0,0-0.1,0.1-0.1c0,0,0,0,0,0s0-0.1,0-0.1c0,0,0,0,0,0c0,0,0,0,0.1,0h0c0,0,0,0,0,0s0,0,0,0c0,0,0,0,0.1,0l0,0
		c0,0,0,0,0.1,0c0,0,0,0,0,0c0,0,0,0,0,0l0,0c0,0,0,0,0,0c0,0,0,0,0,0c0,0,0-0.1,0-0.1c0,0,0,0,0-0.1c0,0,0-0.1,0-0.1l0,0
		c0,0,0,0,0,0c0,0,0,0.1,0,0l0,0l0,0c0,0,0,0,0,0c0,0,0,0,0,0c0,0,0,0-0.1,0c0,0,0,0,0,0c0,0,0,0,0,0s0,0-0.1-0.1l0,0c0,0,0,0,0,0
		l0,0c0,0,0,0,0,0c0,0,0,0,0,0c0,0,0,0,0,0c0,0,0,0,0.1,0h0c0,0,0-0.1,0-0.1c0,0,0,0,0,0c0,0,0,0,0,0s0-0.1,0-0.1
		c0-0.1,0.1-0.1,0.1-0.1s0,0,0.1,0c0,0,0,0,0.1,0c0,0,0,0,0.1,0c0,0,0,0,0,0s0.1,0,0.1,0c0,0,0,0,0,0c0,0,0.1,0,0.1,0c0,0,0,0,0.1,0
		c0,0,0,0.1,0,0.1l0,0c0,0,0,0,0,0l0,0l0,0c0,0,0,0,0,0s0,0.1,0,0.1c0,0,0.1,0.1,0.2,0.2c0,0,0,0,0,0.1c0,0,0,0,0,0l0,0l0,0l0,0
		c0,0,0.1,0.1,0.1,0.1c0,0,0.1,0,0.1,0c0,0,0.1,0,0.1,0l0,0c0,0,0,0,0,0c0,0,0,0,0,0s0,0,0,0s0,0,0,0c0,0,0.1,0,0.1,0l0.1,0
		c0,0,0,0,0,0c0.1,0,0.2,0.1,0.2,0.1c0,0,0,0.1,0,0.1l0,0c0,0.1,0.1,0.2,0.1,0.4c0,0.1,0,0.1,0,0.2c0,0.3-0.1,0.5-0.1,0.6
		c0,0,0,0.1,0,0.1c0,0.1,0,0.2,0.1,0.2l0,0c0,0,0,0,0,0c0,0-0.2,0-0.3,0c0,0,0,0,0,0c0,0,0,0-0.1,0C3.1,3,3,3,3,3c0,0,0,0,0,0
		C3,3,3,3,3,3.1l0,0l0,0c0,0,0,0,0,0.1c0,0,0,0,0,0s0,0,0,0s0,0,0,0c0,0,0,0,0,0c0,0,0,0,0,0h0c0,0,0,0,0-0.1v0c0,0,0,0,0,0
		c0,0,0,0,0,0s0,0,0,0l0,0c0,0-0.1,0-0.1-0.1l0-0.1c0,0,0-0.1,0-0.1c0-0.1,0-0.1,0-0.1c0,0,0.1-0.2,0.1-0.2l0-0.1v0c0,0,0,0-0.1,0
		l0,0c0,0.2-0.1,0.2-0.1,0.2S2.6,2.6,2.6,2.6c0,0,0,0,0,0s0,0,0,0l0,0l0,0l0,0c0,0,0,0,0,0l0,0c0,0,0,0,0,0c0,0,0,0,0,0v0
		c0,0,0,0,0,0c0,0,0,0-0.1,0c0,0,0,0-0.1,0c0,0,0,0,0,0s0,0,0,0s0-0.1,0-0.1c0,0,0,0,0,0c0,0,0,0,0,0l0,0c0,0,0-0.1,0-0.1
		c0,0,0,0,0-0.1c0,0,0,0,0,0c0,0,0,0,0,0c0,0,0-0.1,0-0.2l0,0C2.4,2.5,2.3,2.6,2.3,2.6s0,0,0,0c0,0,0,0,0,0.1c0,0,0,0,0,0
		c0,0,0,0.1,0,0.1l0,0l0,0l0,0.2l0,0l0.3,0.1c0,0,0,0,0,0l0,0l0,0v0.1c0,0,0,0,0,0L2.1,3.4L2.1,3.4z M2.1,3.3l0.5-0.2v0L2.1,3.3
		L2.1,3.3z M1.8,3.2l0.3,0.1V3.3L1.8,3.2L1.8,3.2z M2.1,3.3l0.5-0.2l-0.3,0l0,0l0,0.1c0,0,0,0,0,0c0,0,0,0,0,0l0-0.1l-0.1,0L2.1,3.3
		L2.1,3.3C2.1,3.2,2.1,3.2,2.1,3.3l0-0.1L1.9,3.2L2.1,3.3z M0.9,3C0.9,3,1,3,0.9,3C1,3,1.1,3.1,1.1,3.1c0,0,0.1,0.1,0.2,0.1
		c0.1,0,0.1,0,0.2,0c0,0,0,0,0.1,0c0,0,0,0,0.1,0c0,0,0,0,0-0.1c0,0,0,0,0-0.1c0,0,0,0,0-0.1c0,0,0,0-0.1-0.1c0,0,0,0,0,0
		c0,0.1,0,0.2-0.2,0.2h0c0,0,0.1,0,0.1,0v0h0c0,0-0.1,0-0.1-0.1c0,0,0,0,0,0C1.3,3.1,1.1,3,0.9,3c0,0-0.1-0.1-0.1-0.2c0,0,0,0,0,0
		s0,0.1,0,0.1c0,0,0,0.1,0,0.1l0,0c0,0,0,0.1,0.1,0.1l0,0l0,0c0,0,0,0,0,0l0,0h0l0,0l0,0c0,0,0,0,0,0l0,0h0c0,0,0,0,0,0l0,0
		c0,0,0,0,0,0c0,0,0,0,0,0c0,0,0,0,0,0s0,0,0,0c0,0,0,0,0,0v0c0,0,0,0,0,0C0.8,3,0.9,3,0.9,3C0.9,3,0.9,3,0.9,3L0.9,3L0.9,3
		 M2.8,3.1C2.8,3.1,2.9,3.1,2.8,3.1C2.9,3.1,2.9,3.1,2.8,3.1C2.9,3.1,2.9,3.1,2.8,3.1c0.1,0,0.1,0,0.1,0c0,0,0,0,0,0l0,0
		C3,3.1,3,3,3,3c0,0,0,0,0,0c0,0,0,0,0-0.1c0,0,0,0,0,0c0,0,0.2-0.3,0.2-0.5c0,0,0,0,0,0c0,0,0,0,0,0c0,0-0.2,0.2-0.3,0.2l0,0
		c0,0,0,0.2,0,0.2c0,0,0,0.1,0,0.1h0h0l0,0c0,0,0,0.1,0,0.1S2.8,3,2.8,3.1C2.8,3,2.8,3,2.8,3.1C2.8,3.1,2.8,3.1,2.8,3.1
		C2.8,3.1,2.8,3.1,2.8,3.1L2.8,3.1C2.8,3.1,2.8,3.1,2.8,3.1L2.8,3.1z M1.4,3.1L1.4,3.1C1.4,3.1,1.4,3.1,1.4,3.1C1.6,3.1,1.6,3,1.6,3
		c0,0,0,0,0,0v0c0,0,0,0,0,0c0,0,0,0,0-0.1c0,0,0,0,0-0.1c0-0.1,0-0.1,0-0.2s0-0.1,0-0.1c0,0-0.1,0-0.1,0c0,0,0,0,0,0l0,0.1
		c0,0,0,0.1,0,0.1l0,0l0,0l0,0c0,0,0,0,0,0s0,0,0,0c0,0,0,0,0.1,0c0,0,0,0,0,0l0,0c0,0,0,0,0,0s0,0,0,0.1c0,0,0,0,0,0v0c0,0,0,0,0,0
		h0l0,0h0c0,0,0,0,0,0s0,0,0,0v0c0,0,0,0,0,0c0,0,0,0,0,0c0,0,0,0,0,0l0,0l0,0l0,0l0,0c0,0,0,0,0,0s0,0,0,0h0c0,0,0,0,0,0l0,0l0-0.1
		c0,0,0,0,0,0c0,0,0,0,0,0l0,0c0,0,0,0,0,0c0,0,0,0,0,0s0,0,0,0c0,0,0,0,0,0c0,0,0,0,0,0l0,0l0,0c0,0,0,0,0,0l0,0c0,0,0-0.1-0.1-0.1
		c0,0-0.1,0-0.1,0c0,0-0.1,0-0.1,0c-0.1,0-0.1,0-0.2-0.1c0,0,0,0,0,0c0,0,0,0.1,0.1,0.1l0,0C0.9,2.8,0.9,2.9,1,3
		C1.1,3,1.3,3.1,1.4,3.1C1.3,3.1,1.3,3.1,1.4,3.1L1.4,3.1L1.4,3.1 M2.2,3l0,0.1l0,0L2.2,3C2.2,2.9,2.2,2.9,2.2,3
		C2.2,2.9,2.2,2.9,2.2,3l0.1,0.1l0,0l0-0.2v0c0,0,0,0,0,0C2.2,2.8,2.2,2.9,2.2,3C2.2,2.9,2.2,3,2.2,3L2.2,3 M2.2,3.1L2.2,3.1
		l0.1-0.1L2.2,3.1z M3.3,3C3.3,3,3.3,3,3.3,3C3.3,3,3.3,3,3.3,3c0.1,0,0.1,0,0.1,0C3.3,3,3.2,2.9,3.2,2.7c0,0,0,0,0,0s0,0,0,0
		C3.3,3,3.4,3,3.4,3l0,0c0.1,0,0.1,0,0.2,0c0,0-0.1-0.1-0.1-0.2c0,0,0,0,0-0.1c0-0.1,0.1-0.3,0.1-0.6c0-0.1,0-0.1,0-0.2
		c0-0.2,0-0.3-0.1-0.4c0,0,0,0,0,0L3.4,1.6c0,0-0.1,0.1-0.1,0.1s0,0-0.1,0l0,0L3.2,2c0,0,0,0,0,0c0,0,0,0,0,0l0.1-0.3h0c0,0,0,0,0,0
		C2.9,2.1,2.8,2.5,2.8,2.6c0,0,0,0,0,0c0,0,0,0,0.1-0.1C3,2.5,3.1,2.3,3.1,2.3c0,0,0,0,0,0l0,0c0,0,0.1,0,0.1,0c0,0,0,0,0,0
		c0,0,0,0,0,0c0,0,0,0,0,0s0,0,0,0c0,0-0.1,0-0.1,0c0,0,0,0,0,0C3.2,2.5,3,2.8,3,2.9c0,0,0,0,0,0s0,0,0,0.1l0,0l0,0c0,0,0,0,0,0
		c0,0,0,0,0,0c0,0,0,0,0.1,0c0,0,0,0,0.1,0C3.1,2.9,3,2.9,3,2.9v0h0C3,2.9,3.1,3,3.3,3L3.3,3C3.2,3,3.2,3,3.3,3 M1.4,3L1.4,3L1.4,3
		L1.4,3L1.4,3L1.4,3C1.4,3,1.4,2.9,1.4,3L1.4,3l0-0.1l0,0v0c0,0,0,0,0,0h0L1.4,3L1.4,3L1.4,3L1.4,3C1.4,2.9,1.4,2.9,1.4,3
		C1.4,2.9,1.4,2.9,1.4,3C1.5,2.9,1.4,2.9,1.4,3c0-0.1,0-0.1,0-0.1v0c0,0,0,0,0,0l0,0l0.1,0l0,0l0,0c0,0,0-0.1,0-0.1s0,0,0,0
		c0,0,0,0,0,0l0,0l0,0c0,0,0,0,0,0c0,0,0,0,0,0s0,0,0,0l0,0c0,0,0-0.1,0-0.1l0-0.1c0,0,0,0,0,0c0,0,0-0.1,0-0.1c0,0,0,0,0,0
		c0,0,0.1,0,0.1,0c0,0,0,0,0,0c0,0,0-0.1-0.2-0.1c0,0,0,0-0.1,0.1c0,0,0,0.1,0,0.1c0,0,0,0.1,0,0.1c0,0,0,0,0,0c0,0,0,0.1,0,0.1
		c0,0,0,0,0,0c0,0.1,0,0.1,0,0.1l0,0c0,0,0,0,0,0C1.3,2.9,1.3,2.9,1.4,3L1.4,3c-0.1-0.1-0.1,0-0.1,0l0,0c0,0,0,0,0,0l0,0
		C1.3,2.9,1.3,2.9,1.4,3C1.3,2.9,1.3,2.9,1.4,3C1.3,2.9,1.3,2.9,1.4,3C1.3,2.9,1.3,2.9,1.4,3L1.4,3L1.4,3L1.4,3L1.4,3L1.4,3L1.4,3
		C1.3,2.9,1.3,2.9,1.4,3L1.4,3L1.4,3 M2.2,2.9C2.2,2.9,2.2,2.9,2.2,2.9C2.2,2.9,2.2,2.9,2.2,2.9c0,0,0-0.1,0-0.1s0.1,0,0.1,0
		c0,0,0,0,0,0v0c0,0,0,0,0-0.1c0,0,0,0,0,0c0,0,0-0.1,0-0.1c0,0,0,0,0,0c0,0,0.1-0.1,0.2-0.3c0,0,0,0,0,0c0,0,0-0.1,0-0.1v0l0,0
		L2.6,2c0,0,0,0,0,0L2.4,2l0,0c0,0,0,0,0,0.1c0,0,0,0-0.1,0.1c0,0,0,0.1,0,0.2c0,0,0,0.1,0,0.1c0,0,0,0.1,0,0.1c0,0,0,0.1,0,0.1
		c0,0,0,0,0,0s0,0,0,0l0,0l0,0c0,0,0,0,0,0v0L2.2,2.9L2.2,2.9z M2.8,1.8C2.9,1.8,2.9,1.8,2.8,1.8c0,0,0,0.1,0,0.1c0,0,0,0,0,0
		s0,0,0,0c0,0,0,0.1,0,0.1c0,0,0,0,0,0c0,0,0,0.1,0,0.2c0,0,0,0,0,0l0,0l0,0.1c0,0-0.1,0.1-0.1,0.2c0,0,0,0.1,0,0.1c0,0,0,0.1,0,0.1
		l0,0.1c0,0.1,0,0.1,0.1,0.1l0,0c0,0,0,0,0,0l0,0l0,0c0,0,0-0.1,0-0.1c0,0,0-0.2,0-0.2c0,0,0,0-0.1,0.1l0,0c0,0,0,0,0,0l0,0
		c0,0,0-0.5,0.4-0.9C3,1.7,2.9,1.6,2.9,1.6v0C2.9,1.6,2.9,1.7,2.8,1.8C2.8,1.7,2.8,1.7,2.8,1.8C2.8,1.8,2.8,1.8,2.8,1.8
		C2.7,1.8,2.7,1.8,2.7,1.8l0,0c0,0-0.1,0.1-0.1,0.1c0,0,0,0,0,0c0,0,0,0,0,0l0,0L2.5,2.1v0c0,0,0,0.1,0,0.1c0.1,0,0.2,0,0.2,0l0,0
		c0,0,0.1,0,0.1,0v0c0,0,0-0.1,0-0.1c0,0,0,0,0,0c0,0,0-0.1,0-0.1c0,0,0,0,0,0c0,0,0,0,0,0C2.8,1.9,2.8,1.8,2.8,1.8L2.8,1.8
		C2.8,1.8,2.8,1.8,2.8,1.8C2.8,1.8,2.8,1.8,2.8,1.8 M2.4,2.8C2.4,2.8,2.4,2.8,2.4,2.8C2.5,2.9,2.5,2.9,2.4,2.8c0.1,0,0.1,0,0.1,0
		c0,0,0,0,0,0l0,0c0,0,0,0,0,0c0,0,0,0,0-0.1v0c0,0,0,0,0,0l0,0c0,0,0,0,0,0c0,0,0,0,0,0s0.1-0.1,0.1-0.1s0,0,0-0.2
		c-0.1,0-0.1,0-0.2,0c0,0,0,0.1,0,0.2c0,0,0,0,0,0s0,0,0,0c0,0,0,0.1,0,0.1c0,0,0,0.1,0,0.1l0,0c0,0,0,0,0,0S2.5,2.7,2.4,2.8
		C2.4,2.8,2.4,2.8,2.4,2.8C2.4,2.8,2.4,2.8,2.4,2.8 M0.7,2.5C0.7,2.5,0.7,2.6,0.7,2.5C0.7,2.6,0.7,2.6,0.7,2.5
		c0.1,0.1,0.1,0.2,0.2,0.2c0,0,0.1,0,0.1,0c0,0,0.1,0,0.1,0c0,0,0-0.1,0-0.1c0,0,0,0,0,0c0,0,0-0.1,0-0.1l0,0c0,0-0.1-0.1-0.2-0.2
		c0,0,0,0-0.1,0c0,0,0,0,0,0c0,0,0,0.1,0,0.1v0l0,0c0,0,0,0,0,0l0,0c0,0,0,0,0,0c0,0,0,0.1,0,0.1c0,0,0.1,0.1,0.1,0.1v0h0
		c0,0-0.1,0-0.1-0.1c0,0,0-0.1,0-0.1c0,0,0,0,0,0C0.8,2.5,0.8,2.5,0.7,2.5L0.7,2.5L0.7,2.5L0.7,2.5C0.8,2.5,0.7,2.5,0.7,2.5L0.7,2.5
		 M0.6,2.4C0.6,2.4,0.6,2.5,0.6,2.4c0,0.1,0,0.1,0.1,0.1l0,0c0,0,0,0,0.1,0c0,0,0,0,0,0c0,0,0.1,0,0.1,0l0,0l0,0l0,0c0,0,0,0,0.1,0
		c0,0,0,0,0-0.1l0,0l0,0c0,0,0,0,0,0c0,0,0,0,0,0c0,0,0,0,0,0C0.7,2.3,0.7,2.3,0.6,2.4L0.6,2.4C0.7,2.3,0.7,2.3,0.6,2.4
		C0.6,2.3,0.6,2.4,0.6,2.4 M2.1,2.5L2.1,2.5C2.2,2.5,2.2,2.5,2.1,2.5C2.2,2.5,2.2,2.5,2.1,2.5L2.1,2.5L2.1,2.5L2.1,2.5
		c0.1-0.1,0.1-0.2,0.1-0.2c0-0.1,0-0.1,0-0.2c0,0,0,0,0,0s0,0,0,0s0,0,0,0c0,0,0,0,0,0s0,0.1,0,0.1h0h0l0,0l0,0l0,0l0,0c0,0,0,0,0,0
		c0,0,0,0,0,0h0c0,0,0,0,0,0c0,0,0,0,0,0s0,0,0,0l0,0c0,0,0,0,0,0c0,0,0,0,0,0L2.1,2.5C2,2.4,2.1,2.5,2.1,2.5L2.1,2.5
		C2.1,2.5,2.1,2.5,2.1,2.5L2.1,2.5c0-0.1,0-0.1,0-0.1c0,0,0,0,0,0c0,0,0,0,0,0l0,0c0,0,0,0,0,0c0,0,0,0,0,0c0,0,0,0,0,0s0,0,0,0
		c0,0,0,0,0,0c0,0,0,0,0,0c0,0,0,0,0,0c0,0,0,0,0,0c0,0,0,0,0,0s0,0,0,0C2.2,2.4,2.2,2.4,2.1,2.5C2.2,2.5,2.2,2.5,2.1,2.5
		C2.2,2.5,2.1,2.5,2.1,2.5L2.1,2.5L2.1,2.5z M1.5,2.5L1.5,2.5L1.5,2.5c0.1,0,0.1,0,0.1-0.1c0,0,0-0.1,0-0.1c0,0,0-0.1-0.1-0.2v0h0
		c0,0.1,0.1,0.1,0.1,0.2c0,0,0,0.1,0,0.1c0.1,0,0.1-0.1,0.1-0.2l0,0l0,0c0,0,0,0,0-0.1c0,0-0.1-0.1-0.1-0.2l0,0l0,0l0,0
		c0,0-0.1,0-0.1-0.1c0,0,0,0,0,0s0,0,0,0c0,0,0,0,0,0s0,0,0,0h0l0,0c0,0,0,0,0,0c0,0,0,0,0,0c0,0,0,0,0,0s0,0,0,0s0,0,0,0
		c0,0,0,0,0,0c0,0,0,0,0,0s0,0,0,0c0,0,0,0,0,0l0,0L1.1,2c0,0-0.1,0-0.1,0c0,0-0.1,0-0.1,0.1l0,0c0,0,0,0,0,0c0,0,0,0,0,0
		c0,0,0,0,0,0c0,0,0,0,0,0c0,0,0,0,0.1,0c0,0,0,0,0,0v0h0c0,0,0,0,0,0c0,0,0.1,0.1,0.2,0.2c0,0,0-0.1,0-0.1c0-0.1,0.1-0.1,0.1-0.1h0
		c0.2,0.1,0.2,0.1,0.2,0.1c0,0,0,0,0,0c0,0-0.1,0-0.1,0C1.4,2.4,1.4,2.4,1.5,2.5L1.5,2.5C1.4,2.5,1.4,2.5,1.5,2.5 M0.8,2.3
		C0.8,2.3,0.8,2.4,0.8,2.3c0.1,0,0.1,0,0.1,0c0,0,0,0,0,0c0,0,0,0,0,0s0,0,0,0c0,0,0,0,0,0s0,0,0,0l0,0C0.9,2.1,1,2.1,1,2.1
		c0,0,0.1,0,0.1,0l0.1,0c0,0,0,0,0,0v0c0,0,0-0.1,0-0.1l0,0c0,0,0-0.1,0-0.1c0,0,0-0.1-0.1-0.1c0,0-0.1,0-0.1-0.1c0,0-0.1,0-0.2,0
		c0,0-0.1,0-0.1,0c0,0-0.1,0.1-0.1,0.1c0,0.1,0,0.2,0,0.3h0h0c0,0,0,0.1,0,0.1C0.7,2.2,0.7,2.2,0.8,2.3C0.7,2.3,0.7,2.3,0.8,2.3
		L0.8,2.3C0.7,2.3,0.7,2.3,0.8,2.3 M2.1,2.4L2.1,2.4L2.1,2.4L2.1,2.4z M2.1,2.4L2.1,2.4L2.1,2.4z M0.6,1.6c0,0-0.1,0.1-0.1,0.2l0,0
		c0,0.1,0,0.1,0,0.2c0,0.1,0,0.2,0,0.2c0,0,0,0,0,0s0,0,0,0c0,0,0,0,0,0c0,0,0.1,0,0.1,0c0,0,0,0,0,0s0,0,0.1,0c0,0,0,0,0,0
		c0,0,0,0,0,0l0,0l0,0c0,0,0,0,0,0c0,0,0-0.1,0-0.1c0,0,0-0.1,0-0.1c0-0.1,0-0.1,0-0.1l0,0c0,0,0-0.2,0-0.3C0.7,1.7,0.7,1.6,0.6,1.6
		C0.7,1.6,0.7,1.6,0.6,1.6L0.6,1.6 M0.4,2.2C0.4,2.2,0.4,2.2,0.4,2.2C0.4,2.2,0.4,2.3,0.4,2.2C0.4,2.2,0.5,2.2,0.4,2.2
		C0.5,2.2,0.5,2.2,0.4,2.2C0.5,2.1,0.5,2.1,0.5,2c0-0.1,0-0.1,0-0.2l0,0c0-0.1,0.1-0.2,0.1-0.2c0,0,0,0,0,0c0,0-0.1,0.1-0.1,0.2
		l0,0.3c0,0,0,0,0,0s0,0,0,0.1C0.4,2.1,0.4,2.1,0.4,2.2C0.4,2.2,0.4,2.2,0.4,2.2C0.4,2.2,0.4,2.2,0.4,2.2L0.4,2.2L0.4,2.2
		C0.4,2.2,0.4,2.2,0.4,2.2 M0.5,1.6c0,0,0,0.1-0.1,0.2c0,0,0,0.2,0,0.2c0,0.1-0.1,0.2-0.1,0.2s0,0,0,0s0,0,0,0l0.1,0l0,0
		c0,0,0,0,0,0c0,0,0,0,0,0c0,0,0-0.1,0-0.1c0,0,0,0,0-0.1l0,0l0,0l0-0.3C0.5,1.6,0.5,1.6,0.5,1.6C0.5,1.5,0.5,1.5,0.5,1.6
		C0.5,1.5,0.5,1.5,0.5,1.6 M2,2.2C2,2.2,2,2.2,2,2.2C2,2.2,2,2.2,2,2.2C1.9,2.2,2,2.2,2,2.2 M1.6,2c0,0,0.1,0.1,0.1,0.2l0.1,0
		c0,0,0,0,0,0c0,0,0,0,0,0C2,2,2,2,2,2c0,0,0,0,0,0s0,0,0,0c0,0,0,0,0,0c0,0,0,0,0,0s0,0,0,0c0,0,0,0,0,0s0,0,0,0s0,0,0,0s0,0,0,0v0
		c0,0,0,0,0,0s0,0,0,0l0,0c0,0,0,0,0,0s0,0,0,0c0,0-0.1,0-0.1,0c0,0-0.1,0-0.1,0c0,0,0,0,0,0c0,0,0,0-0.1,0s0,0,0,0c0,0,0,0,0,0
		C1.6,1.9,1.6,1.9,1.6,2C1.6,1.9,1.6,1.9,1.6,2C1.6,1.9,1.6,1.9,1.6,2C1.6,1.9,1.6,2,1.6,2L1.6,2C1.6,2,1.6,2,1.6,2
		C1.6,2,1.6,2,1.6,2 M1.1,0.9C1.1,0.9,1.2,0.9,1.1,0.9c0,0-0.1,0.1-0.1,0.2c0,0,0,0.1,0,0.1c0,0,0,0,0,0c0,0,0,0.1,0,0.2
		c0,0,0,0,0,0v0c0,0,0,0,0,0c0,0,0,0.1,0,0.1c0,0.1,0,0.1,0.1,0.1c0,0,0.1,0.1,0.1,0.1c0,0,0,0.1,0,0.1l0,0c0,0,0,0,0,0.1v0
		c0,0,0,0,0,0c0,0,0,0,0,0c0,0,0,0,0,0c0,0,0,0,0,0h0c0,0,0,0,0,0c0,0,0,0,0,0s0,0,0,0c0,0,0,0,0,0c0,0,0,0,0,0l0,0l0,0c0,0,0,0,0,0
		c0,0,0,0,0,0l0,0l0,0c0,0,0,0,0,0s0,0,0,0s0,0,0,0l0,0l0,0c0,0,0,0,0,0c0,0,0,0,0,0c0,0,0-0.1,0-0.1c0,0,0-0.1,0-0.2l0,0l0,0
		c0-0.1,0-0.1,0-0.2c0,0,0,0,0,0v0c0,0,0,0,0,0c0,0,0-0.1,0.1-0.1c0,0,0-0.1,0.1-0.1c0,0,0,0,0,0c0,0,0,0,0-0.1c0,0,0,0,0,0
		s0,0,0-0.1c0,0,0,0-0.1-0.1c0,0,0,0,0,0C1.3,0.8,1.2,0.8,1.1,0.9L1.1,0.9c0-0.1-0.1-0.1-0.2,0C0.9,1,0.9,1,0.9,1c0,0,0,0,0,0
		c0,0,0.1,0.1,0.1,0.1c0,0,0,0,0,0l0,0l0,0c0,0,0-0.1,0-0.1C1.1,1,1.1,0.9,1.1,0.9C1.1,0.9,1.1,0.9,1.1,0.9L1.1,0.9 M2.4,1.8
		C2.4,1.8,2.3,1.9,2.4,1.8l0,0.1c0,0,0,0.1,0,0.1h0l0.2,0c0,0,0,0,0,0s0,0,0,0s0,0,0-0.1c0,0,0,0,0,0c0,0,0,0,0,0c0,0,0,0,0,0l0,0h0
		c0,0,0-0.1,0-0.1c0,0,0,0,0,0C2.5,1.8,2.4,1.8,2.4,1.8C2.4,1.8,2.4,1.8,2.4,1.8C2.4,1.8,2.4,1.8,2.4,1.8 M2.5,1.9L2.5,1.9L2.5,1.9
		C2.6,1.9,2.6,1.9,2.5,1.9L2.5,1.9L2.5,1.9L2.5,1.9L2.5,1.9L2.5,1.9C2.6,1.9,2.6,1.9,2.5,1.9c0.1,0,0.1,0,0.2-0.1c0,0,0,0,0,0
		c0,0,0,0,0-0.1l0,0c0,0,0,0,0,0c0.1,0,0.1-0.1,0.1-0.1l0,0c0,0,0,0,0,0s0,0,0,0l0,0h0c0,0,0.1,0.2,0.2,0.2c0,0,0,0,0,0s0,0,0.1,0
		C3.1,1.6,3,1.6,3,1.5c0-0.1,0.1-0.2,0.1-0.2c0,0,0,0,0,0s0,0,0,0C3,1.3,2.9,1.5,2.9,1.5l0,0c0,0,0,0,0,0c0,0,0,0,0,0
		s0.1-0.2,0.2-0.2c0,0,0,0,0,0c-0.2,0-0.3,0.1-0.4,0.1c0,0-0.1,0-0.1,0h0c0,0,0,0,0,0c0,0,0,0,0,0c0,0,0,0,0,0c0,0,0.1,0,0.1,0
		s0,0,0,0l0,0c0,0,0,0,0,0c0,0,0,0,0,0l0,0c0,0,0,0,0,0l0,0l0,0c0,0,0,0,0,0s0,0,0,0s0,0,0,0c0,0,0,0,0,0v0c0,0,0,0,0,0c0,0,0,0,0,0
		c0,0,0,0,0,0c0,0,0,0,0,0l0,0c0,0,0,0,0,0l0,0l0,0c0,0,0,0,0,0s0,0,0,0c0,0,0,0,0,0s0,0,0,0c0,0,0,0,0,0s0,0,0,0l0,0c0,0,0,0,0,0
		c0,0,0,0,0,0c0,0,0-0.1,0-0.1v0c0,0,0,0,0,0s0,0,0,0c0,0,0,0-0.1,0l0,0l0,0l0,0l0,0c0,0,0,0,0,0s0,0,0,0c0,0,0,0,0,0l0,0l0,0
		c0,0,0,0,0,0.1v0c0,0,0,0,0,0c0,0,0,0,0,0.1C2.4,1.8,2.4,1.8,2.5,1.9L2.5,1.9C2.5,1.8,2.5,1.8,2.5,1.9C2.5,1.8,2.5,1.9,2.5,1.9
		L2.5,1.9L2.5,1.9 M2.6,1.4C2.7,1.4,2.7,1.4,2.6,1.4C2.7,1.5,2.7,1.5,2.6,1.4C2.7,1.5,2.7,1.5,2.6,1.4c0,0.1,0,0.2,0,0.2
		c0,0,0,0,0,0c0,0,0,0,0,0s0,0,0,0v0c0,0,0,0,0,0c0,0,0,0,0,0s0,0,0,0l0,0l0,0l0,0c0,0,0,0,0,0l0,0l0,0c0,0,0,0,0,0l0,0c0,0,0,0,0,0
		c0,0,0,0,0,0c0,0,0,0,0,0v0l0,0v0c0,0,0,0,0,0c0,0,0,0,0,0v0c0,0,0,0,0,0c0,0,0,0,0,0s0,0,0,0l0,0l0,0l0,0c0,0,0,0,0,0c0,0,0,0,0,0
		s0,0,0,0S2.7,1.4,2.6,1.4C2.7,1.4,2.7,1.4,2.6,1.4C2.6,1.4,2.6,1.4,2.6,1.4L2.6,1.4L2.6,1.4C2.6,1.4,2.6,1.4,2.6,1.4
		C2.6,1.4,2.6,1.4,2.6,1.4c-0.1,0-0.1,0-0.2,0l0,0l0,0l0,0c0,0,0,0-0.1,0c0,0,0,0,0,0c0,0,0,0,0,0c0,0,0,0,0,0.1l0,0v0l0,0
		c0,0,0,0,0,0v0l0,0v0c0-0.1,0.1-0.1,0.1-0.1l0,0c0,0,0,0,0,0c0,0,0,0,0.1,0S2.5,1.4,2.6,1.4C2.6,1.4,2.6,1.4,2.6,1.4L2.6,1.4
		L2.6,1.4L2.6,1.4C2.6,1.4,2.6,1.4,2.6,1.4 M3.2,1.2c0,0-0.1,0.1-0.1,0.2c0,0.1,0,0.2,0.2,0.2c0,0,0.1-0.1,0.1-0.1l0.1-0.1
		c0,0,0.1-0.1,0.1-0.1s0-0.1-0.1-0.1c0,0,0,0,0,0l-0.1,0h0C3.3,1.2,3.2,1.2,3.2,1.2C3.2,1.2,3.2,1.2,3.2,1.2
		C3.2,1.2,3.2,1.2,3.2,1.2L3.2,1.2 M1.8,1.6C1.8,1.6,1.8,1.6,1.8,1.6c0,0,0.1,0,0.1,0c0,0,0,0,0,0s0-0.1,0-0.1c0,0,0,0,0,0s0,0,0,0
		s0,0,0,0c0,0,0-0.1,0-0.1l0,0l0,0c0,0,0,0,0,0c0,0,0,0,0-0.1v0c0,0,0-0.1,0-0.1h0c0,0,0,0,0,0h0c0,0,0,0,0,0s0,0,0,0c0,0,0,0,0,0
		c0,0,0,0.1,0,0.1c0,0,0,0,0,0C1.8,1.5,1.7,1.5,1.8,1.6C1.7,1.6,1.7,1.6,1.8,1.6L1.8,1.6C1.8,1.6,1.8,1.6,1.8,1.6L1.8,1.6
		C1.8,1.6,1.8,1.6,1.8,1.6 M0.6,1.5C0.6,1.5,0.6,1.5,0.6,1.5c0.1,0,0.1,0,0.2,0c0,0,0.1,0,0.1,0c0.1,0,0.2,0,0.2,0c0,0,0,0,0-0.1
		c0,0,0,0,0,0l0,0c0,0-0.1,0-0.1,0.1c0,0,0,0-0.1,0c-0.1,0-0.1,0-0.1,0c0,0,0,0,0,0C0.7,1.4,0.6,1.5,0.6,1.5L0.6,1.5
		c0-0.1,0-0.1,0-0.1C0.5,1.4,0.5,1.4,0.6,1.5C0.5,1.5,0.5,1.5,0.6,1.5C0.5,1.5,0.6,1.5,0.6,1.5 M2.1,1.6C2.1,1.6,2.1,1.6,2.1,1.6
		C2.2,1.5,2.2,1.5,2.1,1.6C2.2,1.5,2.2,1.5,2.1,1.6C2.2,1.5,2.2,1.5,2.1,1.6L2.1,1.6C2.2,1.5,2.2,1.5,2.1,1.6c0.1-0.1,0-0.1,0-0.1v0
		l0,0c0,0,0,0,0,0l0,0c0,0,0,0,0,0v0c0,0,0,0,0,0c0,0,0,0,0,0c0,0,0,0,0,0c0,0,0,0,0,0l0,0c0,0,0,0,0,0v0l0,0c0,0,0,0,0,0
		c0,0,0,0,0,0c0,0,0,0,0,0l0,0c0,0,0,0,0,0c0,0,0,0,0,0c0,0,0,0,0,0c0,0,0,0,0,0c0,0,0,0,0,0c0,0,0,0,0,0s0,0,0,0c0,0,0,0,0,0
		s0,0,0,0l0,0c0,0,0,0,0,0c0,0,0,0-0.1,0c0,0,0,0,0,0.1c0,0,0,0,0,0c0,0,0,0,0,0c0,0,0,0,0,0.1l0,0l0,0c0,0,0,0,0,0
		C1.9,1.4,2,1.5,2.1,1.6L2.1,1.6c0-0.1,0-0.1,0-0.1c0,0,0,0,0,0s0,0,0,0l0,0v0c0,0,0,0,0,0c0,0,0,0,0,0s0,0,0,0c0,0,0,0,0,0l0,0
		c0,0,0,0,0,0c0,0,0,0,0,0s0,0,0,0s0,0.1,0,0.1l0,0l0,0l0,0l0,0c0,0,0,0,0,0C2.1,1.5,2.1,1.5,2.1,1.6C2.1,1.5,2.1,1.5,2.1,1.6
		L2.1,1.6C2.1,1.5,2.1,1.5,2.1,1.6C2.1,1.5,2.1,1.6,2.1,1.6L2.1,1.6 M2.3,1.5C2.3,1.5,2.3,1.5,2.3,1.5C2.3,1.5,2.3,1.5,2.3,1.5
		C2.4,1.5,2.4,1.5,2.3,1.5c0.1-0.1,0.1-0.1,0.1-0.1c0,0,0,0,0.1,0l0,0l0,0l0,0c0,0,0,0,0,0c0,0,0,0,0,0c0,0,0,0,0,0c0,0,0,0,0.1-0.1
		C2.5,1.2,2.5,1.2,2.5,1.1c0,0,0,0,0,0l0,0l0,0c0,0,0,0,0,0c0,0,0,0,0,0l0,0l0,0l0,0l0,0l0,0l0,0c0,0,0,0,0,0v0l0-0.1l0-0.1
		c0,0-0.1,0-0.1,0l0,0C2.3,1,2.3,1,2.3,0.9l0,0c0,0,0,0,0,0s0,0,0,0c0,0,0,0,0,0c0,0,0,0,0,0c0,0,0,0,0,0l0,0l0,0l0,0h0c0,0,0,0,0,0
		h0v0c0,0,0,0,0,0c0,0,0,0,0-0.1c0,0,0-0.1,0-0.1l0,0l0,0c0,0,0-0.1,0-0.1s0-0.1,0-0.1c0,0,0,0,0,0c0,0,0,0,0,0c0,0-0.1,0-0.1,0l0,0
		c0,0,0,0-0.1,0c0,0,0,0-0.1,0.1c0,0,0,0.1,0,0.1s0,0,0,0l0,0l0,0l0,0c0,0,0,0,0,0c0,0,0.1,0.1,0.1,0.1c0,0,0,0,0,0c0,0,0,0,0,0
		l0-0.1c0,0,0,0,0,0s0,0,0,0l0,0.1l0,0c0,0,0,0.1,0,0.1c0,0.1,0,0.1,0,0.1s0,0.1,0,0.1v0l0,0c0,0,0,0,0,0c0,0,0,0,0,0c0,0,0,0,0,0
		l0,0v0c0,0,0,0,0,0v0c0,0,0,0,0,0v0L2.3,1.5z M1.5,1.3C1.5,1.4,1.5,1.4,1.5,1.3L1.5,1.3L1.5,1.3C1.5,1.4,1.5,1.4,1.5,1.3
		c0,0.1,0,0.1,0,0.1c0,0,0,0,0,0c0,0,0,0,0.1,0c0,0,0,0,0,0c0,0,0,0,0,0v0v0c0,0,0,0,0,0c0,0,0,0,0,0l0,0v0c0,0,0,0,0,0l0,0
		c0,0,0,0,0,0l0,0c0,0,0,0,0,0s0,0,0,0l0,0c0,0,0,0,0,0c0,0,0,0,0,0S1.6,1.4,1.5,1.3L1.5,1.3L1.5,1.3C1.5,1.4,1.5,1.4,1.5,1.3
		C1.5,1.4,1.5,1.4,1.5,1.3L1.5,1.3L1.5,1.3C1.6,1.4,1.6,1.4,1.5,1.3C1.6,1.4,1.6,1.4,1.5,1.3L1.5,1.3L1.5,1.3
		C1.5,1.3,1.5,1.3,1.5,1.3 M0.8,1.4c0,0,0.1,0,0.1,0c0,0,0,0,0,0c0,0,0.1,0,0.1-0.1l-0.1,0C0.9,1.4,0.8,1.3,0.8,1.4
		c0-0.1,0-0.1,0-0.1c0,0-0.1-0.1-0.1-0.1l0,0l0,0c0,0,0-0.1,0-0.1c0,0-0.1,0-0.1,0.1c0,0,0,0-0.1,0.1c0,0,0,0,0,0c0,0,0,0,0,0
		c0,0,0,0,0,0l0,0l0,0c0,0,0,0,0.1,0h0C0.6,1.4,0.7,1.4,0.8,1.4C0.7,1.4,0.8,1.4,0.8,1.4 M1.3,1.4C1.3,1.4,1.3,1.4,1.3,1.4
		c0,0,0,0.1,0.1,0.1c0,0,0,0,0.1,0c0,0,0,0,0,0c0,0,0,0,0,0l0,0l0,0c0,0,0-0.1,0-0.1c0,0,0.1,0,0.1,0h0h0c0,0-0.1,0-0.1,0l0,0l0,0
		l0,0C1.4,1.3,1.4,1.3,1.3,1.4L1.3,1.4C1.3,1.3,1.3,1.4,1.3,1.4 M0.7,1.3C0.7,1.3,0.8,1.3,0.7,1.3c0.1,0,0.2,0.1,0.2,0.1l0.1,0l0,0
		h0l0,0l0,0c0,0,0,0,0,0c0-0.1,0-0.1,0-0.1v0c0,0,0,0,0,0c-0.1,0-0.1,0-0.1-0.1c0,0,0,0,0-0.1c0,0,0-0.1,0.1-0.1
		c0,0,0.1-0.1,0.2-0.1c0,0,0,0,0,0c0,0-0.1,0-0.1,0c0,0-0.1,0-0.2,0.1c0,0-0.1,0.1-0.1,0.1c0,0-0.1,0-0.1,0.1c0,0,0,0,0,0
		C0.7,1.1,0.7,1.2,0.7,1.3L0.7,1.3C0.7,1.2,0.7,1.3,0.7,1.3 M1.3,1.2C1.3,1.2,1.3,1.2,1.3,1.2C1.3,1.2,1.3,1.3,1.2,1.4l0.1,0l0.1,0
		c0,0,0.1,0,0.1,0c0,0,0,0,0,0c0,0,0,0,0,0c0,0,0,0,0,0l0,0h0v0l0,0c0,0,0,0,0,0c0,0,0-0.1,0-0.1v0L1.3,1.2L1.3,1.2L1.3,1.2
		C1.4,1.1,1.3,1.2,1.3,1.2 M2.6,1.1c0,0,0,0.1,0.1,0.1c0,0,0.1-0.1,0.3-0.1c0,0,0,0-0.1-0.1c0,0,0,0-0.1,0l0,0l0,0c0,0,0,0,0.1,0
		c0,0,0-0.1,0-0.1C2.8,0.9,2.6,0.9,2.6,0.9v0l0,0c0,0,0,0,0,0.1c0,0,0,0,0,0l0,0l0,0c0,0,0,0,0,0.1c0,0,0,0,0,0
		C2.6,1,2.6,1.1,2.6,1.1C2.6,1.1,2.6,1.1,2.6,1.1L2.6,1.1C2.6,1.1,2.6,1.1,2.6,1.1 M0.7,1.2L0.7,1.2L0.7,1.2z M2.5,1.2
		C2.5,1.2,2.5,1.2,2.5,1.2C2.5,1.1,2.5,1.1,2.5,1.2L2.5,1.2L2.5,1.2C2.5,1.1,2.5,1.1,2.5,1.2L2.5,1.2C2.5,1.1,2.6,1.1,2.5,1.2
		C2.6,1.1,2.6,1,2.6,1l0,0l0,0c0,0,0,0,0,0c0,0,0,0,0,0c0,0,0,0,0,0l0,0c0,0,0,0,0,0c0,0,0,0,0,0s0,0,0,0l0,0c0,0,0-0.1,0-0.1l0,0
		l0,0c0,0,0,0,0,0l0,0c0,0,0-0.1,0-0.1c0,0-0.1,0-0.1,0h0c0,0-0.1,0-0.1,0c0,0,0,0,0,0l-0.1,0c0,0,0,0,0,0l0,0l0,0c0,0,0,0,0,0
		c0,0,0,0.1,0,0.1s0,0.1,0,0.1l0,0c0,0,0,0.1,0,0.1c0,0,0,0,0,0.1l0,0v0h0l0,0l0,0h0l0,0c0,0,0,0,0,0s0,0,0,0c0,0,0,0,0,0v0
		c0,0,0,0,0,0s0,0,0,0c0,0,0-0.1,0-0.1c0,0,0,0,0-0.1c0,0,0,0,0.1,0l0,0c0,0,0,0,0,0s0,0,0,0c0,0,0.1-0.1,0.1-0.1h0c0,0,0,0,0,0
		c0,0,0,0,0,0c0,0,0,0,0,0c0,0,0,0.1,0,0.1c0,0,0,0,0,0L2.5,1l0,0L2.5,1.2L2.5,1.2C2.5,1.1,2.5,1.2,2.5,1.2 M1.6,1.1
		C1.6,1.1,1.6,1.1,1.6,1.1L1.6,1.1C1.7,1.1,1.6,1.1,1.6,1.1C1.7,1.1,1.7,1.1,1.6,1.1L1.6,1.1L1.6,1.1L1.6,1.1L1.6,1.1L1.6,1.1
		L1.6,1.1C1.7,1.1,1.7,1.1,1.6,1.1L1.6,1.1L1.6,1.1L1.6,1.1L1.6,1.1L1.6,1.1L1.6,1.1L1.6,1.1L1.6,1.1L1.6,1.1L1.6,1.1L1.6,1.1
		C1.7,1.1,1.7,1.1,1.6,1.1C1.7,1.1,1.8,1,1.8,1c0,0,0,0,0,0c0,0,0,0,0,0l0,0c0,0,0,0,0,0c0,0,0,0,0,0l0,0l0,0l0,0c0,0,0,0,0,0
		c0,0,0,0-0.1,0c0,0,0,0-0.1,0c0,0,0,0,0,0s0,0,0,0s0,0,0,0s0,0,0,0c0,0,0,0,0,0c0,0,0,0,0,0c0,0,0,0,0,0c0,0,0,0,0,0.1l0.1,0
		L1.6,1.1L1.6,1.1L1.6,1.1C1.6,1.1,1.6,1.1,1.6,1.1 M2,1.1C2,1.1,2,1.1,2,1.1C2,1.1,2,1.1,2,1.1c0.1,0,0.1,0,0.1,0c0,0,0,0,0,0v0
		C2,1,2.1,1,2,1.1C2,1,2,1,2,1l0,0c0,0,0,0,0,0l0,0l0,0c0,0,0,0,0,0C2,1,2,1,2,1.1C2,1,2,1,2,1.1L2,1.1L2,1.1L2,1.1C2,1,2,1,2,1.1
		L2,1.1L2,1c0,0,0,0,0,0s0,0,0,0c0,0,0,0,0,0c0,0-0.1,0-0.1,0l0,0c0,0,0,0,0,0l0,0c0,0,0,0,0,0l0,0l0,0C1.9,1,1.9,1,2,1.1
		C1.9,1,1.9,1,2,1.1L2,1.1C2,1.1,2,1.1,2,1.1 M2,1C2,1,2,1,2,1C2,1,2,1,2,1C2.1,1,2.1,1,2,1L2,1C2.1,1,2.1,1,2,1L2.1,1c0,0,0,0,0,0
		s0,0,0,0C2.1,0.9,2,0.9,2,1L2,1C2,0.9,2,0.9,2,1C2,0.9,1.9,0.9,2,1c-0.1,0-0.1,0-0.1,0L2,1C1.9,1,2,1,2,1L2,1L2,1C2,1,2,1,2,1
		C2,1,2,1,2,1L2,1z M1.8,1L1.8,1L1.8,1z M2.3,0.9C2.3,0.9,2.3,1,2.3,0.9L2.3,0.9C2.4,1,2.4,1,2.5,1l0,0l0,0l0,0c0,0,0,0,0,0l0,0
		c0,0,0,0,0,0c0,0,0,0,0,0v0c0,0,0,0,0,0l0,0c0,0,0,0,0,0c0,0,0,0,0,0c0,0,0,0,0,0l0,0l0-0.1l0,0c0,0,0-0.1,0-0.1c0,0,0,0,0-0.1
		c0,0,0,0,0,0c0,0,0,0,0,0s0,0,0,0c0,0,0,0,0,0c0,0,0,0,0,0C2.4,0.8,2.3,0.8,2.3,0.9C2.3,0.9,2.3,0.9,2.3,0.9
		C2.3,0.9,2.3,0.9,2.3,0.9L2.3,0.9 M1.5,1C1.5,1,1.5,1,1.5,1C1.5,1,1.6,1,1.5,1c0.1,0,0.1,0,0.1,0c0,0,0,0,0,0l0,0l0,0c0,0,0,0,0,0
		c0,0,0,0,0,0v0v0h0l0,0c0,0,0,0,0.1,0c0,0,0,0,0,0l0,0c0,0,0,0,0,0c0,0,0,0,0,0c0,0,0,0,0-0.1l0,0c0,0,0-0.1-0.1-0.1h0h0
		c0,0,0,0,0,0c0,0-0.1,0-0.1,0c0,0,0,0,0,0c0,0,0,0-0.1,0c0,0-0.1,0-0.1,0c0,0,0,0,0,0c0,0,0,0,0,0c0,0,0,0,0,0l0,0l0,0c0,0,0,0,0,0
		h0l0,0c0,0,0,0,0,0c0,0,0,0,0,0l0,0l0,0c0,0,0,0,0,0C1.4,0.9,1.4,0.9,1.5,1L1.5,1C1.4,0.9,1.4,1,1.5,1L1.5,1C1.4,1,1.5,1,1.5,1
		C1.5,1,1.5,1,1.5,1 M1,2.2L1,2.2L1,2.2L1,2.2z M2,2.1L2,2.1L2,2.1C1.9,2.1,1.9,2.1,2,2.1L2,2.1L2,2.1C2,2.1,2,2.1,2,2.1L2,2.1
		C2,2.1,2,2.1,2,2.1C2,2.1,2,2.1,2,2.1L2,2.1L2,2.1L2,2.1L2,2.1 M2.6,1.8L2.6,1.8L2.6,1.8C2.5,1.8,2.5,1.8,2.6,1.8
		C2.5,1.8,2.5,1.8,2.6,1.8L2.6,1.8C2.6,1.8,2.6,1.8,2.6,1.8C2.6,1.8,2.6,1.8,2.6,1.8L2.6,1.8L2.6,1.8L2.6,1.8
		C2.6,1.8,2.6,1.8,2.6,1.8C2.6,1.8,2.6,1.8,2.6,1.8 M2.6,1.4L2.6,1.4L2.6,1.4z M1.9,1.3C1.9,1.3,1.9,1.3,1.9,1.3
		C1.9,1.3,1.9,1.3,1.9,1.3L1.9,1.3L1.9,1.3L1.9,1.3L1.9,1.3L1.9,1.3L1.9,1.3L1.9,1.3L1.9,1.3L1.9,1.3L1.9,1.3L1.9,1.3
		C2,1.3,2,1.3,1.9,1.3L1.9,1.3C2,1.3,1.9,1.3,1.9,1.3C1.9,1.3,1.9,1.3,1.9,1.3 M2.4,1C2.4,1,2.4,1,2.4,1L2.4,1L2.4,1
		C2.4,1,2.4,1,2.4,1C2.4,1,2.4,1,2.4,1C2.4,1,2.4,1,2.4,1L2.4,1z M1.7,1L1.7,1L1.7,1C1.7,1,1.7,1,1.7,1C1.7,1,1.7,1,1.7,1L1.7,1
		L1.7,1C1.7,1,1.7,1,1.7,1C1.7,1,1.7,1,1.7,1L1.7,1C1.8,1,1.8,1,1.7,1C1.8,1,1.8,1,1.7,1L1.7,1 M2.4,1C2.4,1,2.4,1,2.4,1L2.4,1
		L2.4,1L2.4,1L2.4,1C2.4,0.9,2.4,0.9,2.4,1C2.4,1,2.4,1,2.4,1L2.4,1z M2.4,0.9C2.4,0.9,2.4,0.9,2.4,0.9L2.4,0.9
		C2.4,0.9,2.4,0.9,2.4,0.9L2.4,0.9C2.4,0.9,2.3,0.9,2.4,0.9C2.4,0.9,2.4,0.9,2.4,0.9C2.4,0.9,2.4,0.9,2.4,0.9
		C2.4,0.9,2.4,0.9,2.4,0.9C2.4,0.9,2.4,0.9,2.4,0.9C2.4,0.9,2.4,0.9,2.4,0.9L2.4,0.9C2.4,0.9,2.4,0.9,2.4,0.9L2.4,0.9"/>
	<path d="M2.8,2.7C2.8,2.7,2.8,2.7,2.8,2.7c-0.1-0.1,0-0.1,0-0.1h0v0C2.8,2.6,2.8,2.6,2.8,2.7C2.8,2.7,2.8,2.7,2.8,2.7L2.8,2.7
		C2.9,2.7,2.9,2.7,2.8,2.7L2.8,2.7"/>
	<path d="M3.5,2.7C3.5,2.7,3.5,2.7,3.5,2.7C3.5,2.7,3.5,2.7,3.5,2.7c0-0.1,0-0.4,0-0.5c0,0,0-0.1,0-0.1c0,0,0-0.1,0-0.1
		c0-0.1,0-0.1,0-0.1c0,0,0,0,0,0s0,0,0,0c0,0,0,0.1,0,0.1c0,0,0,0.1,0,0.1c0,0,0,0.1,0,0.1C3.5,2.3,3.6,2.5,3.5,2.7
		C3.6,2.6,3.6,2.7,3.5,2.7C3.6,2.7,3.6,2.7,3.5,2.7L3.5,2.7"/>
	<path d="M3.2,1.4L3.2,1.4L3.2,1.4L3.2,1.4L3.2,1.4L3.2,1.4C3.2,1.4,3.2,1.4,3.2,1.4C3.2,1.4,3.2,1.4,3.2,1.4"/>
	<path d="M3.4,2.8c0,0-0.1-0.1-0.2-0.2l0,0v0h0C3.2,2.7,3.4,2.8,3.4,2.8L3.4,2.8C3.4,2.8,3.4,2.8,3.4,2.8L3.4,2.8 M1.5,2.7L1.5,2.7
		c0,0,0.1-0.1,0.1-0.1c0,0,0-0.1,0-0.1c0-0.1,0-0.1,0-0.2l0,0c0,0,0,0,0,0c0,0,0,0,0,0c0,0,0,0.1,0,0.2c0,0,0,0,0,0.1
		C1.7,2.6,1.6,2.7,1.5,2.7C1.6,2.7,1.6,2.7,1.5,2.7L1.5,2.7 M1.7,2.2C1.7,2.1,1.6,2,1.6,2l0,0c0,0,0,0,0,0S1.7,2.1,1.7,2.2
		C1.8,2.2,1.8,2.2,1.7,2.2C1.8,2.2,1.8,2.2,1.7,2.2C1.8,2.2,1.7,2.2,1.7,2.2 M1.3,2.2L1.3,2.2c0,0,0-0.1,0.1-0.1c0,0,0,0,0.1,0
		c0,0,0,0,0,0s0,0,0,0c0,0-0.1,0-0.1,0C1.4,2.2,1.3,2.2,1.3,2.2C1.3,2.2,1.3,2.2,1.3,2.2L1.3,2.2 M2.9,2.1c0,0,0-0.1,0-0.1s0,0,0,0
		l0,0c0,0,0,0,0,0s0,0,0,0c0,0,0,0,0,0C2.9,2,2.9,2.1,2.9,2.1C2.9,2.1,2.9,2.1,2.9,2.1C2.9,2.1,2.9,2.1,2.9,2.1
		C2.9,2.1,2.9,2.1,2.9,2.1 M1.1,2c0,0,0-0.1,0-0.2c0-0.1,0-0.1,0-0.1c0,0,0,0,0,0l0,0c0,0,0,0,0,0c0,0,0,0,0,0s0,0,0,0s0,0.1,0,0.1
		C1.1,1.9,1.1,2,1.1,2C1.1,2,1.1,2,1.1,2C1.1,2,1.1,2,1.1,2C1.1,2,1.1,2,1.1,2 M2.2,2L2.2,2c0,0,0.1-0.2,0.1-0.2c0,0,0,0,0,0
		c0,0,0,0,0,0s0,0.1-0.1,0.1C2.2,1.9,2.2,2,2.2,2L2.2,2C2.2,2,2.2,2,2.2,2C2.2,2,2.2,2,2.2,2 M2.7,1.8C2.7,1.8,2.7,1.8,2.7,1.8
		c0,0,0-0.1,0-0.1l0,0c0,0,0,0,0,0c0,0,0,0,0,0S2.8,1.7,2.7,1.8C2.8,1.8,2.8,1.8,2.7,1.8L2.7,1.8 M2.8,1.8C2.8,1.8,2.8,1.8,2.8,1.8
		l0.2,0c0,0,0,0,0.1,0h0v0c0,0-0.1,0-0.1,0H2.8L2.8,1.8C2.8,1.8,2.8,1.8,2.8,1.8 M2,1.6C2,1.6,1.9,1.6,2,1.6C1.9,1.6,1.9,1.6,2,1.6
		C1.9,1.6,1.9,1.6,2,1.6C1.9,1.6,1.9,1.6,2,1.6c0,0,0.1,0,0.1-0.1c0,0,0,0,0,0c0,0,0,0,0,0C2.1,1.6,2,1.6,2,1.6L2,1.6z M2.9,1.5
		c0-0.1-0.1-0.1-0.1-0.1c0,0,0,0,0,0l0,0c0,0,0,0,0,0s0,0,0,0c0,0,0,0,0,0C2.8,1.4,2.9,1.4,2.9,1.5C2.9,1.5,2.9,1.5,2.9,1.5L2.9,1.5
		C2.9,1.5,2.9,1.5,2.9,1.5 M2.1,1.4L2.1,1.4C2.1,1.3,2.1,1.3,2.1,1.4C2.1,1.3,2.1,1.3,2.1,1.4C2,1.3,2,1.3,2.1,1.4
		c0-0.1,0-0.1,0-0.1h0v0L2.1,1.4L2.1,1.4C2.1,1.3,2.1,1.3,2.1,1.4L2.1,1.4C2.1,1.3,2.1,1.3,2.1,1.4L2.1,1.4C2.1,1.4,2.1,1.4,2.1,1.4
		C2.1,1.4,2.1,1.4,2.1,1.4"/>
	<g>
		<path class="st0" d="M10.4,3.1c0,0,0.1,0.1,0.2,0.1c0.1,0,0.2-0.1,0.2-0.2c0-0.1-0.1-0.2-0.1-0.2l0,0c0.1,0,0.1-0.1,0.1-0.2
			c0-0.1-0.1-0.2-0.2-0.2c-0.1,0-0.2,0.1-0.2,0.1c0,0,0,0,0,0l0,0c0,0,0,0,0,0c0,0,0.1-0.1,0.1-0.1c0.1,0,0.1,0,0.1,0.1
			c0,0.1-0.1,0.1-0.1,0.1h-0.1c0,0,0,0,0,0v0c0,0,0,0,0,0h0.1c0.1,0,0.2,0.1,0.2,0.1c0,0.1-0.1,0.1-0.1,0.1S10.5,3.1,10.4,3.1
			C10.5,3,10.5,3,10.4,3.1L10.4,3.1C10.4,3.1,10.4,3.1,10.4,3.1 M10.1,3.1C10,3.1,10,3,10,2.9c0,0,0.1-0.1,0.1-0.1
			c0.1,0,0.1,0.1,0.1,0.1C10.3,3,10.2,3.1,10.1,3.1 M9.9,2.9c0,0.2,0.1,0.3,0.2,0.3c0.1,0,0.2-0.1,0.2-0.2c0-0.1-0.1-0.2-0.2-0.2
			c-0.1,0-0.1,0-0.1,0c0-0.1,0.2-0.2,0.2-0.2c0,0,0,0,0,0l0,0c0,0,0,0,0,0C10.1,2.5,9.9,2.6,9.9,2.9 M9.4,3c0,0,0.1-0.1,0.1-0.1
			C9.6,2.9,9.7,3,9.7,3c0,0.1-0.1,0.1-0.1,0.1S9.4,3.1,9.4,3 M9.6,2.8c-0.1,0-0.1,0-0.1-0.1s0.1-0.1,0.1-0.1c0.1,0,0.1,0,0.1,0.1
			C9.7,2.7,9.6,2.8,9.6,2.8 M9.3,3c0,0.1,0.1,0.2,0.2,0.2c0.2,0,0.2-0.1,0.2-0.2c0-0.1-0.1-0.2-0.1-0.2l0,0c0,0,0.1-0.1,0.1-0.2
			c0-0.1-0.1-0.2-0.2-0.2c-0.1,0-0.2,0.1-0.2,0.2c0,0.1,0.1,0.1,0.1,0.2l0,0C9.4,2.8,9.3,2.9,9.3,3 M8.9,3.2h0.4c0,0,0,0,0,0v0
			c0,0,0,0,0,0H9.1V2.5c0,0,0,0,0,0H9L8.9,2.6c0,0,0,0,0,0l0,0c0,0,0,0,0,0l0.1,0v0.4L8.9,3.2C8.8,3.1,8.8,3.1,8.9,3.2L8.9,3.2
			C8.8,3.2,8.8,3.2,8.9,3.2 M7.9,2.8c0-0.1,0.1-0.3,0.3-0.3c0.1,0,0.3,0.1,0.3,0.3S8.3,3.1,8.2,3.1C8.1,3.1,7.9,3,7.9,2.8 M7.8,2.8
			C7.8,3,8,3.2,8.2,3.2S8.6,3,8.6,2.8S8.4,2.5,8.2,2.5C8,2.5,7.8,2.6,7.8,2.8 M7.1,3.2C7.1,3.2,7.1,3.2,7.1,3.2L7.1,3.2
			C7.2,3.2,7.2,3.2,7.1,3.2l0.1-0.5l0,0l0.4,0.5h0c0,0,0,0,0,0V2.5c0,0,0,0,0,0H7.6c0,0,0,0,0,0V3l0,0L7.2,2.5h0c0,0,0,0,0,0V3.2z
			 M6.6,2.9l0.1-0.3l0,0l0.1,0.3H6.6z M6.4,3.2L6.4,3.2C6.4,3.2,6.4,3.2,6.4,3.2C6.5,3.1,6.5,3.1,6.5,3h0.3l0.1,0.2c0,0,0,0,0,0H7
			c0,0,0,0,0,0L6.7,2.5c0,0,0,0,0,0h0c0,0,0,0,0,0L6.4,3.2C6.3,3.2,6.3,3.2,6.4,3.2 M5.9,3.2C5.9,3.2,5.9,3.2,5.9,3.2l0.4,0
			c0,0,0,0,0,0V3.1c0,0,0,0,0,0L5.9,3.2L6,2.5c0,0,0,0,0,0H5.9c0,0,0,0,0,0L5.9,3.2L5.9,3.2z M5.6,3.2C5.6,3.2,5.6,3.2,5.6,3.2
			L5.6,3.2c0.1,0,0.1,0,0.1,0V2.5c0,0,0,0,0,0H5.6c0,0,0,0,0,0V3.2z M4.7,3.2C4.7,3.2,4.7,3.2,4.7,3.2L4.7,3.2c0.1,0,0.1,0,0.1,0
			l0.1-0.5l0,0L5,3.2c0,0,0,0,0,0h0c0,0,0,0,0,0l0.2-0.5l0,0l0.1,0.5c0,0,0,0,0,0h0.1c0,0,0,0,0,0L5.3,2.5c0,0,0,0,0,0h0
			c0,0,0,0,0,0L5.1,3l0,0L4.8,2.5c0,0,0,0,0,0h0c0,0,0,0,0,0L4.7,3.2z"/>
		<path class="st0" d="M13.1,1.5c0-0.2,0.1-0.3,0.3-0.3s0.3,0.1,0.3,0.3s-0.1,0.3-0.3,0.3C13.3,1.8,13.1,1.7,13.1,1.5 M13,1.5
			C13,1.8,13.2,2,13.5,2S14,1.8,14,1.5S13.8,1,13.5,1C13.2,1,13,1.2,13,1.5 M12,1.5C12,1.8,12.2,2,12.5,2c0.1,0,0.2,0,0.4-0.1
			c0,0,0,0,0,0l-0.1-0.1c0,0,0,0,0,0c-0.1,0-0.1,0.1-0.2,0.1c-0.2,0-0.3-0.1-0.3-0.3s0.1-0.3,0.3-0.3c0.1,0,0.2,0,0.2,0.1
			c0,0,0,0,0,0l0.1-0.1c0,0,0,0,0,0C12.7,1,12.6,1,12.5,1C12.2,1,12,1.2,12,1.5 M11.6,2C11.6,2,11.6,2,11.6,2l0.2,0c0,0,0,0,0,0V1
			c0,0,0,0,0,0h-0.1c0,0,0,0,0,0V2z M10.5,2C10.5,2,10.5,2,10.5,2l0.2,0c0,0,0,0,0,0V1.4l0,0L11.3,2h0c0,0,0,0,0,0V1c0,0,0,0,0,0
			h-0.1c0,0,0,0,0,0v0.6l0,0L10.5,1h0c0,0,0,0,0,0L10.5,2L10.5,2z M9.4,1.5C9.4,1.8,9.6,2,9.9,2c0.1,0,0.2,0,0.4-0.1c0,0,0,0,0,0
			l-0.1-0.1c0,0,0,0,0,0c-0.1,0-0.1,0.1-0.2,0.1c-0.2,0-0.3-0.1-0.3-0.3s0.1-0.3,0.3-0.3c0.1,0,0.2,0,0.2,0.1c0,0,0,0,0,0l0.1-0.1
			c0,0,0,0,0,0C10.2,1,10.1,1,9.9,1C9.6,1,9.4,1.2,9.4,1.5 M8.6,2C8.6,2,8.6,2,8.6,2l0.6,0c0,0,0,0,0,0V1.9c0,0,0,0,0,0H8.8V1.6h0.4
			c0,0,0,0,0,0V1.4c0,0,0,0,0,0H8.8V1.2h0.4c0,0,0,0,0,0V1c0,0,0,0,0,0H8.7c0,0,0,0,0,0V2z M8,2C8,2,8.1,2,8,2l0.2,0c0,0,0,0,0,0
			V1.2h0.2c0,0,0,0,0,0V1c0,0,0,0,0,0H7.8c0,0,0,0,0,0v0.1c0,0,0,0,0,0H8L8,2L8,2z M7.4,2C7.4,2,7.4,2,7.4,2l0.2,0c0,0,0,0,0,0V1
			c0,0,0,0,0,0H7.4c0,0,0,0,0,0V2z M6.6,2C6.6,2,6.7,2,6.6,2l0.6,0c0,0,0,0,0,0V1.9c0,0,0,0,0,0H6.8V1c0,0,0,0,0,0H6.7c0,0,0,0,0,0
			V2z M5.6,1.5c0-0.2,0.2-0.3,0.3-0.3s0.3,0.1,0.3,0.3S6.1,1.8,6,1.8S5.6,1.7,5.6,1.5 M5.5,1.5C5.5,1.8,5.7,2,6,2s0.5-0.2,0.5-0.5
			S6.3,1,6,1S5.5,1.2,5.5,1.5 M4.8,1.5V1.2H5c0.1,0,0.2,0.1,0.2,0.1c0,0.1-0.1,0.1-0.2,0.1L4.8,1.5L4.8,1.5z M4.7,2
			C4.7,2,4.7,2,4.7,2l0.2,0c0,0,0,0,0,0V1.6H5c0.2,0,0.3-0.1,0.3-0.3S5.2,1,5,1H4.7c0,0,0,0,0,0V2z"/>
	</g>
</g>
</svg>
