<svg xmlns="http://www.w3.org/2000/svg" width="136.161" height="40.006" viewBox="0 0 136.161 40.006">
  <g id="Group_29" data-name="Group 29" transform="translate(-21.226 -229.755)">
    <path id="Path_34" data-name="Path 34" d="M61.189,251.125l-1.768-.117m1.683,1.05-1.759-.207m1.632,1.122-1.75-.272m1.579,1.193-1.734-.361m1.521,1.272-1.715-.448m1.458,1.348-1.689-.533m1.4,1.409-1.668-.6m1.328,1.467-1.637-.678m1.258,1.532-1.6-.758m1.182,1.593-1.562-.835m1.1,1.65-1.519-.911m1.024,1.7-1.474-.982m.948,1.741-1.437-1.035m.871,1.778-1.386-1.1m.785,1.819L54.925,261.8m.7,1.855-1.274-1.231m.61,1.886-1.214-1.289m.52,1.914-1.151-1.346m.429,1.938-1.085-1.4m.337,1.958-1.018-1.45m.253,1.966-.965-1.485m.168,1.971-.893-1.53m.074,1.978-.818-1.571m-.021,1.981-.741-1.608m-.117,1.978-.662-1.643m-.212,1.973-.581-1.673m-.308,1.962-.5-1.7m-.394,1.944-.434-1.718m-.478,1.922L44.8,267.64m-.573,1.9-.262-1.752m-.666,1.869-.173-1.763m-.749,1.836-.106-1.768m-.829,1.8-.018-1.771m-.918,1.758.073-1.769m-1,1.715.139-1.767m-1.07,1.668.229-1.757m-1.154,1.616.317-1.742m-1.224,1.561.383-1.73m-1.291,1.5.47-1.708m-1.365,1.439.553-1.683m-1.435,1.372.636-1.653m-1.493,1.3.7-1.627m-1.547,1.236.777-1.592m-1.6,1.161.853-1.552m-1.662,1.083.928-1.509m-1.712,1,1-1.462m-1.76.919,1.069-1.412m-1.8.842,1.119-1.373m-1.825.763L29,263.278m-1.862.676,1.246-1.26m-1.892.587,1.3-1.2m-1.919.5,1.359-1.136m-1.941.406,1.412-1.07m-1.959.313,1.462-1m-1.974.219,1.508-.929m-1.977.135,1.54-.875m-1.977.049,1.58-.8m-1.979-.046,1.618-.722m-1.976-.141,1.651-.642m-1.969-.236,1.681-.561m-1.957-.333,1.706-.477m-1.939-.428,1.727-.392m-1.916-.513,1.741-.327m-1.889-.6,1.755-.239m-1.86-.691,1.765-.15m-1.825-.772,1.769-.084m-1.787-.852,1.772.005m-1.746-.94,1.769.094m-1.7-1.017,1.764.162M21.432,246.9l1.753.251m-1.6-1.174,1.738.339m-1.544-1.243,1.725.4m-1.485-1.308,1.7.49M22.3,243.278l1.676.575M22.625,242.4l1.645.657m-1.282-1.518,1.611.737m-1.212-1.57,1.583.8m-1.14-1.619,1.542.873m-1.061-1.674,1.5.946m-.981-1.724,1.45,1.017m-.9-1.769,1.4,1.086m-.811-1.812,1.346,1.152m-.726-1.849,1.289,1.214m-.644-1.875,1.244,1.26m-.562-1.9L29.1,236.15m-.472-1.923,1.118,1.373m-.381-1.945,1.053,1.425m-.288-1.961.982,1.474m-.194-1.975.911,1.519m-.1-1.982.837,1.561m-.005-1.986.76,1.6m.081-1.982.7,1.626M34.268,231l.621,1.659m.263-1.964.539,1.688m.357-1.951.456,1.712m.453-1.933.37,1.733m.537-1.909.306,1.745m.62-1.879.217,1.758m.714-1.85.129,1.767m.806-1.815.04,1.771m.884-1.775-.027,1.771m.963-1.733-.117,1.768m1.049-1.686-.205,1.759M44.364,230l-.271,1.751m1.191-1.584-.358,1.735m1.27-1.525-.444,1.715m1.333-1.466-.506,1.7m1.394-1.4-.59,1.671m1.462-1.335-.671,1.64m1.527-1.265-.75,1.6m1.586-1.19-.826,1.567m1.643-1.113-.9,1.526m1.695-1.034-.973,1.48m1.743-.952-1.042,1.432m1.786-.869-1.109,1.381m1.818-.791-1.158,1.341m1.847-.711-1.22,1.284m1.879-.624-1.279,1.226m1.907-.536-1.336,1.165m1.93-.445-1.389,1.1m1.95-.354-1.439,1.033m1.964-.262-1.486.963m1.976-.169-1.531.893m1.983-.076-1.571.819m1.984.018-1.608.743m1.982.113-1.642.664m1.975.208-1.672.584m1.961.293-1.692.523m1.943.377-1.716.44m1.924.471-1.736.356m1.9.565-1.751.269m1.873.658-1.763.182m1.84.739-1.768.116m1.8.818-1.771.029m1.763.907-1.77-.061" fill="none" stroke="#1a1818" stroke-miterlimit="10" stroke-width="0.484"/>
    <path id="Path_35" data-name="Path 35" d="M149.136,244.287a3.215,3.215,0,1,1,3.209,3.208,3.241,3.241,0,0,1-3.209-3.208m-1.821,0a5.036,5.036,0,1,0,5.03-5.057,5,5,0,0,0-5.03,5.057m-9.764,0a5.022,5.022,0,0,0,5.057,5.029,4.808,4.808,0,0,0,3.4-1.358.268.268,0,0,0,.015-.378l-.869-.9a.257.257,0,0,0-.35,0,3.366,3.366,0,0,1-2.143.8,3.253,3.253,0,0,1-.015-6.5,3.323,3.323,0,0,1,2.158.826.223.223,0,0,0,.35,0l.854-.882a.259.259,0,0,0-.013-.392,4.742,4.742,0,0,0-3.391-1.3,5.047,5.047,0,0,0-5.057,5.057m-3.67,4.623a.276.276,0,0,0,.266.267h1.3a.276.276,0,0,0,.266-.267v-9.274a.275.275,0,0,0-.266-.266h-1.3a.275.275,0,0,0-.266.266Zm-10.689,0a.276.276,0,0,0,.266.267h1.275a.266.266,0,0,0,.266-.267v-6.024h.014l5.856,6.43h.336a.263.263,0,0,0,.266-.252v-9.428a.275.275,0,0,0-.266-.266h-1.289a.266.266,0,0,0-.266.266v5.786h-.014l-5.827-6.192h-.351a.263.263,0,0,0-.266.252Zm-10.324-4.623a5.022,5.022,0,0,0,5.057,5.029,4.811,4.811,0,0,0,3.4-1.358.267.267,0,0,0,.014-.378l-.868-.9a.258.258,0,0,0-.351,0,3.363,3.363,0,0,1-2.143.8,3.253,3.253,0,0,1-.014-6.5,3.318,3.318,0,0,1,2.157.826.224.224,0,0,0,.351,0l.854-.882a.26.26,0,0,0-.014-.392,4.74,4.74,0,0,0-3.39-1.3,5.046,5.046,0,0,0-5.057,5.057m-7.663,4.623a.266.266,0,0,0,.266.267h5.7a.266.266,0,0,0,.266-.267v-1.148a.266.266,0,0,0-.266-.267h-4.147v-2.452h3.46a.265.265,0,0,0,.266-.265v-1.163a.276.276,0,0,0-.266-.267h-3.46v-2.3h4.147a.266.266,0,0,0,.266-.266v-1.149a.266.266,0,0,0-.266-.266h-5.7a.266.266,0,0,0-.266.266Zm-5.842,0a.276.276,0,0,0,.266.267h1.3a.276.276,0,0,0,.266-.267v-7.859h2.144a.266.266,0,0,0,.266-.266v-1.149a.266.266,0,0,0-.266-.266H97.22a.266.266,0,0,0-.266.266v1.149a.266.266,0,0,0,.266.266h2.143Zm-6.009,0a.276.276,0,0,0,.266.267h1.3a.276.276,0,0,0,.267-.267v-9.274a.276.276,0,0,0-.267-.266h-1.3a.275.275,0,0,0-.266.266Zm-7.495,0a.266.266,0,0,0,.266.267h5.128a.265.265,0,0,0,.265-.267v-1.148a.265.265,0,0,0-.265-.267H87.68v-7.859a.275.275,0,0,0-.266-.266H86.125a.266.266,0,0,0-.266.266Zm-9.722-4.623a3.215,3.215,0,1,1,3.208,3.208,3.241,3.241,0,0,1-3.208-3.208m-1.821,0a5.036,5.036,0,1,0,5.029-5.057,5,5,0,0,0-5.029,5.057m-5.94-.378v-2.816H70a1.4,1.4,0,0,1,1.443,1.359A1.444,1.444,0,0,1,70,243.909Zm-1.821,5a.266.266,0,0,0,.266.267h1.288a.276.276,0,0,0,.267-.267v-3.292h1.751a3.124,3.124,0,1,0-.014-6.248H66.821a.266.266,0,0,0-.266.266Z" fill="#1a1818"/>
    <path id="Path_36" data-name="Path 36" d="M122.856,259.921a2.473,2.473,0,0,0,2.011.873,1.969,1.969,0,0,0,2.216-1.873,1.923,1.923,0,0,0-1.187-1.628v-.029a1.8,1.8,0,0,0,1.01-1.54,1.864,1.864,0,0,0-2.05-1.794,2.662,2.662,0,0,0-1.814.863.176.176,0,0,0,0,.255l.363.323a.167.167,0,0,0,.255-.019,1.5,1.5,0,0,1,1.138-.55,1.076,1.076,0,0,1,1.118,1.07c0,.578-.461,1.049-1.383,1.049h-.549c-.138,0-.2.059-.2.205v.422a.18.18,0,0,0,.186.206h.549c1.05,0,1.55.559,1.55,1.147a1.128,1.128,0,0,1-1.226,1.059,1.961,1.961,0,0,1-1.334-.607.172.172,0,0,0-.265-.02l-.382.353a.168.168,0,0,0-.01.235m-2.942-.009c-1.069,0-1.431-1.118-1.353-1.942a1.566,1.566,0,0,1,1.344-.745,1.344,1.344,0,0,1,.009,2.687m-2.3-1.864c0,1.51.745,2.746,2.314,2.746a2.233,2.233,0,0,0,2.187-2.245,2.036,2.036,0,0,0-2.049-2.129,2.793,2.793,0,0,0-1.3.363,4,4,0,0,1,2.334-2.167c.186-.059.226-.167.177-.284l-.167-.4a.179.179,0,0,0-.245-.118,4.649,4.649,0,0,0-3.246,4.236m-4.52.883a1.247,1.247,0,0,1,2.49,0A1.129,1.129,0,0,1,114.325,260a1.145,1.145,0,0,1-1.235-1.069m1.245-2.118c-.765-.118-1.1-.52-1.1-1.05a1.032,1.032,0,0,1,1.069-1.029,1.048,1.048,0,0,1,1.128,1.029c0,.52-.344.942-1.1,1.05m-2.266,2.1a1.992,1.992,0,0,0,2.246,1.883c1.422,0,2.285-.814,2.285-1.883a1.97,1.97,0,0,0-1.187-1.638v-.039a1.8,1.8,0,0,0,1.011-1.51,2.113,2.113,0,0,0-4.178,0,1.8,1.8,0,0,0,1.01,1.52v.029a2.063,2.063,0,0,0-1.187,1.638m-4.706,1.785h3.412a.178.178,0,0,0,.187-.176V260.1a.18.18,0,0,0-.187-.186H109.7v-5.7a.185.185,0,0,0-.177-.186h-.481l-1.461,1.324a.191.191,0,0,0-.029.2l.118.343a.149.149,0,0,0,.216.069l.852-.432v4.384h-1.372a.18.18,0,0,0-.187.186v.422a.178.178,0,0,0,.187.176m-8.935-3.423a2.545,2.545,0,1,1,2.539,2.541,2.57,2.57,0,0,1-2.539-2.541m-.981,0a3.526,3.526,0,1,0,3.52-3.54,3.5,3.5,0,0,0-3.52,3.54m-7.1,3.236a.193.193,0,0,0,.186.187h.618a.187.187,0,0,0,.186-.187v-4.775h.01l4.255,5.06h.256a.184.184,0,0,0,.186-.176v-6.6a.193.193,0,0,0-.186-.187h-.628a.186.186,0,0,0-.186.187v4.638h-.01l-4.256-4.923h-.245a.185.185,0,0,0-.186.177Zm-5.423-2.147,1.2-2.687h.049l1.206,2.687ZM83.1,260.7h.618a.244.244,0,0,0,.225-.147c.2-.451.4-.892.6-1.344h3.207l.608,1.344a.23.23,0,0,0,.226.147H89.2a.173.173,0,0,0,.166-.255l-2.991-6.6a.23.23,0,0,0-.166-.109h-.1a.23.23,0,0,0-.166.109l-3.011,6.6a.173.173,0,0,0,.167.255m-4.628-.187a.186.186,0,0,0,.186.187H82.15a.187.187,0,0,0,.186-.187v-.538a.187.187,0,0,0-.186-.187H79.493v-5.766a.194.194,0,0,0-.187-.187h-.647a.186.186,0,0,0-.186.187Zm-2.923,0a.194.194,0,0,0,.187.187h.647a.193.193,0,0,0,.186-.187v-6.491a.193.193,0,0,0-.186-.187h-.647a.194.194,0,0,0-.187.187Zm-8.992-.039a.176.176,0,0,0,.186.226h.638a.191.191,0,0,0,.176-.137l.706-4.383h.04l1.774,4.51a.177.177,0,0,0,.167.108h.176a.166.166,0,0,0,.167-.108l1.765-4.51h.03l.726,4.383a.2.2,0,0,0,.186.137h.637a.168.168,0,0,0,.177-.226L72.9,253.881a.2.2,0,0,0-.177-.148h-.157a.187.187,0,0,0-.166.109l-2.04,5.01h-.04l-2.049-5.01a.2.2,0,0,0-.167-.109H67.95a.2.2,0,0,0-.176.148Z" fill="#1a1818"/>
    <path id="Path_37" data-name="Path 37" d="M27.283,244.966a2.446,2.446,0,0,0-.858,2.046c.014,1.347.212,3.2-.346,4.2a2.278,2.278,0,0,1-.135.215s-.43.506-.069.528.571-.007.748.191a.917.917,0,0,0,.242.21,2.309,2.309,0,0,0,.766.024m.834-7.28a2.427,2.427,0,0,0-.591,1.58c0,.966.275,2.4.27,2.732a8.524,8.524,0,0,1-.194,1.2,2.848,2.848,0,0,0,.065,1.721m-1.8-8.847-.005,0c-.049.041-.392.368.144,1.185m4.813-1.324-.119.085c-.193.139-.6.426-1.028.711-.6.4-1.118-.153-1.422-.374s-.954,0-1.538.082a1.07,1.07,0,0,1-.85-.365c-.153-.145-.265-.289-.322-.341-.137-.124-.248-.68-.1-.816s.589-.658.589-.658c.681-1.232,1.384-1.391,1.384-1.391m6.356,8.25c-.014.036-.086.226-.1.292a3.343,3.343,0,0,0-.068.414c-.006.1,0,.233-.074.271a.86.86,0,0,1-.283.142.567.567,0,0,1-.373-.052c-.1-.078-.2-.215-.3-.291a.413.413,0,0,1-.063-.067.708.708,0,0,1-.118-.539,3.155,3.155,0,0,1,.241-.636c0-.071-.346-.989-.346-.989s-.535-.725-.624-.9a3.718,3.718,0,0,1-.576-1.24,5.563,5.563,0,0,1-.16-.958,1.866,1.866,0,0,1-.058-.624c0-.087.012-.184.026-.288a14.043,14.043,0,0,0,.061-1.5c0-.035.009-.1.02-.2a5.571,5.571,0,0,1,.247-1.13,16.077,16.077,0,0,1,.831-1.555m1.721,9.847v.005m-3.1-5.136-.85-.282c-.142-.039-.961-.376-1.134-.387a2.37,2.37,0,0,1-.79-.3,2.1,2.1,0,0,1-.584-.876c.007-.119.065-.773.15-1.258.018-.108.038-.208.059-.291.113-.455.5-.606.768-.763s.565-.747.864-.933a8.053,8.053,0,0,1,1.706-.475A7.537,7.537,0,0,1,33,237.82s.036,0,.1,0a2.342,2.342,0,0,1,.952.233,1.89,1.89,0,0,1,.312.194,1.664,1.664,0,0,1,.477.579,1.577,1.577,0,0,1,.083,1.162,2.363,2.363,0,0,1-.31.624,1.728,1.728,0,0,1-.509.513c-.209.1-.414.148-.518.46a3.329,3.329,0,0,1-.6,1.323s-.053.015-.019.159a1.111,1.111,0,0,0,.057.161,4.81,4.81,0,0,1,.533,1.709,5.505,5.505,0,0,0,.248,1.662c.146.472.428,1.038.544,1.045a.766.766,0,0,1,.424.171,1.922,1.922,0,0,0,.475.26c.052.019.175.076.2.139.016.042-.01.086-.127.125a1.023,1.023,0,0,1-.551.025.694.694,0,0,0-.205-.085c-.05,0-.12.072-.164.1s-.214.072-.279.156h0a.09.09,0,0,0-.014.022m-2.85-7.2c-.473.175-.964-.318-1.42-.894s-.109-1.078.54-1.789c.577-.633,2.332-.811,2.721-.841m-.079,5.234.734-.368.577-.29s.86-.3,1.332-.509a.79.79,0,0,0,.3-.173,2.761,2.761,0,0,0,.03-.491m.183-.886a1.267,1.267,0,0,1-.223.865.812.812,0,0,1-.17.153l-.482.319m2.736-1.528s.217.243.28-.07a9.82,9.82,0,0,1,.4-1.118.657.657,0,0,1,.108-.2m-4.115,1.88,1.4-.363.08.043.55.3a1.423,1.423,0,0,0,.495.174c.132-.021.136-.094.139-.151a.268.268,0,0,1,.141-.165c.044-.011.138-.136.138-.136a.673.673,0,0,0,.234-.044.941.941,0,0,0,.153-.15h0m-3.965-2.143c-.084-.22.144-.423.243-.481.015-.009.164-.041.164-.041a.282.282,0,0,1-.006-.037c-.02-.313.941-.467.941-.467.027-.614,1.494-.353,1.494-.353a2.133,2.133,0,0,1,1.393.411c.546-.1.834.552.834.552.52.155.294.9.279.97s-.011.191-.283.233a.559.559,0,0,1-.294-.062,2.338,2.338,0,0,1-.559-.249l-.393-.294s.03.31-.1.439-.18.123-.268.118-.28.184-.4.256a1.2,1.2,0,0,1-.615.289,1.8,1.8,0,0,1-.725.033c-.159-.085-.519.077-.568-.061a.734.734,0,0,0-.3-.328m2.555,1.206.186.2m-3.854,2.351a.926.926,0,0,0,.009.56,1.414,1.414,0,0,0,1.182.889c.084.008.9.039.9.039m-.083-2.254s.572.406.625.606m-3.58,6.7-.911.39s-.939.233-1.172.259-1.13.221-1.1.743-.063.707.122.853a2.4,2.4,0,0,0,.352.234m.7-.363a7.014,7.014,0,0,0-.683.385,1.978,1.978,0,0,0-.4.321,2.1,2.1,0,0,0-.484.843.737.737,0,0,0-.016.112.832.832,0,0,0,.348.618m-.38-.737a5.341,5.341,0,0,0-.726-.429c-.046,0-.213-.031-.4-.055a2.528,2.528,0,0,0-.522-.038c-.214.026-.893.408-.936.81s-.358,1.483.644,1.465a3.955,3.955,0,0,0,.562-.377.526.526,0,0,0,.062-.066,2.862,2.862,0,0,1,1-.578c.08,0,.409,0,.691.025a.71.71,0,0,1,.418.12c.126.161.208.706.282.768s.661.54.661.54m3.529,2.185v0l.439.584.23.388s.115.132.189.1.162-.069.1-.225-.2-.467-.2-.467a2.015,2.015,0,0,0-.374-.521l.4.155.55.35a.217.217,0,0,0,.119-.05c.03-.042-.008-.118-.049-.163s-.451-.553-.451-.553a2.023,2.023,0,0,0-.272-.176.419.419,0,0,1-.108-.124,1.716,1.716,0,0,0-.8-.588c-.121-.029-.443-.07-.418-.257a11.393,11.393,0,0,1,.413-1.1l.28-.57s.047-.09.112-.223a3.728,3.728,0,0,0,.347-.892s.68-.092.7-.42.261-.812-1.7-1.529a2.831,2.831,0,0,0-.869.989,6,6,0,0,0-.4,1.07,4.886,4.886,0,0,0-.154,1.383c.014.407.025.842.058,1.242M34.2,257.7h0l.443.923s.134.065.173.03.09-.073.065-.139-.1-.339-.1-.339l-.114-.39-.1-.236-.089-.267m-1.852-1.6a2.207,2.207,0,0,0,.4,1.369s.3.25.33.281a1.981,1.981,0,0,1,.324.258c.026.058.1.257.063.3s-.2.126-.213.156-.069.183.037.24c0,0,.047.038.1-.031a.325.325,0,0,1,.186-.1c.052-.012.319-.124.326-.241s.011-.2.012-.208m-3.568-6.575s.081.089.213.228a13.889,13.889,0,0,0,1.811,1.686m-4.7,1.26a2.029,2.029,0,0,0,.277.846c.019.024.044.05.072.079a3.07,3.07,0,0,0,1.841.786c.939.057,1.931.194,2.484-.328h0l0,0m-4.35-.436a1.919,1.919,0,0,0,.448,1.7l.045.041a11.037,11.037,0,0,0,2.283,1.8c.88.422,2.82,1.191,3.027,1.263.044.014.126.045.228.087a7.3,7.3,0,0,1,1.2.574M28.7,256.981a.561.561,0,0,0-.174.337,2.442,2.442,0,0,1-.169.9,5.035,5.035,0,0,0-.444,1.283,9.07,9.07,0,0,0,.45.934.476.476,0,0,0,.141.161,1.15,1.15,0,0,0,.238.028,1.772,1.772,0,0,0,.209.006c.044-.01.162-.041.165-.1s-.006-.137.038-.155.263-.282.185-.308l-.282-.1c-.072-.027-.166-.024-.2-.114s-.079-.143-.044-.233a.573.573,0,0,1,.209-.226,5.065,5.065,0,0,1,1.012-.6,1.384,1.384,0,0,1,.572.216,15.138,15.138,0,0,0,1.483,1.167,7.438,7.438,0,0,0,1.692.743,14.246,14.246,0,0,1,1.692.333c.362.1,1.148.251,1.49-.142s.5-.418.516-.663a2.557,2.557,0,0,0-.06-1.29,5.512,5.512,0,0,0-.4-.587m-1.567-10.362a6.285,6.285,0,0,1,1.485.581l.02.015a.7.7,0,0,1,.13.119m-1.432,5.311a6.765,6.765,0,0,1,.448,1.126c.025.176.251.907.436,1.484.12.372.222.68.241.734a1.255,1.255,0,0,1,.2.879c-.006.031-.014.062-.023.094a1.507,1.507,0,0,1-.094.245c-.329.677-.413,1.422-2.124,1.358l-.417-.038m2.873-6.8c.977-.129,1.165-1.341,1.191-1.725a3.193,3.193,0,0,0-.088-.381s-.081-.371-.164-.695a18.572,18.572,0,0,0-1.045-1.591m-.133-.159s-.148-.63.109-.749l.036-.032c.047-.043.133-.122.189-.185.083-.091.27-.314.386-.324a.612.612,0,0,0,.321-.212.813.813,0,0,1,.715-.362,10.418,10.418,0,0,1,1.339.176,4.7,4.7,0,0,0,.706.447,1.412,1.412,0,0,1,.189.016.486.486,0,0,1,.408.309.309.309,0,0,1,.031.445s.41.236.475.434.119.585-.235.7c0,0-.427.051-.5.047,0,0-.028-.175-.123-.2a.331.331,0,0,0-.292.042,4.324,4.324,0,0,1-.539.315c-.1.03-.273.06-.3.116s-.094.188-.448.378l-1.321.3m.372.166a2.469,2.469,0,0,0,.276.443,1.155,1.155,0,0,0,.96.284c.135-.041.171-.144.249-.158s.181-.124.279-.137.206-.239.206-.239.323.077.335-.117S40.8,250,40.8,250a.773.773,0,0,0,.32-.52m-1.075,1.516-.128-.1m.525-.1s-.244-.074-.239-.151m-5.446,3.222a1.083,1.083,0,0,0,.9.337h0a2.24,2.24,0,0,0,1.512-.892,2.03,2.03,0,0,0-.36-2.475m4.711-6.626a.749.749,0,0,0,.254.666c.038.066.09.165.09.165a.7.7,0,0,0,.322-.04,1.2,1.2,0,0,0,.326-.231c.257-.192.051-.379.114-.578a.432.432,0,0,0-.122-.383.07.07,0,0,0,.076-.067c0-.073-.2-.23-.224-.245s.022-.113-.031-.213a1.8,1.8,0,0,1-.1-.352c0-.031-.048-.22-.053-.244a.409.409,0,0,0-.238-.3c-.006-.138-.174-.246-.174-.246.04-.3-.259-.265-.294-.4s-.306-.261-.306-.261a.709.709,0,0,0-.433-.226,2.213,2.213,0,0,0-.585.166.638.638,0,0,0-.4.041.63.63,0,0,0-.694.369,1.2,1.2,0,0,0-.348.37,13.074,13.074,0,0,0-.4,1.408c-.052.389-.025.306-.062.408-.064.177-.808.833-.435,1.1s.48.31.549.487,1.139.309,1.37.206.361-.862.361-.862a1.483,1.483,0,0,0-.036-.564,1.76,1.76,0,0,0-.088-.26,1.782,1.782,0,0,1-.159-.723.933.933,0,0,0-.186-.518.658.658,0,0,1-.213-.54,1.164,1.164,0,0,1,.373-.688,1.342,1.342,0,0,1,.982-.106s.22.193.261.226.212.139.329.239a.52.52,0,0,1,.163.276m.287.387c0,.065.1.639.095.683s.169.473.055.569a2.433,2.433,0,0,1-.455.26,4.656,4.656,0,0,1-1.562-.212m-2.126,1.14a3.312,3.312,0,0,0-1.257,3.418m4.378-2.792.039,1.782M37.9,256.468s-.152-2.165-.091-2.475m2.061-14.778s.005-.558.158-.694a1.247,1.247,0,0,1,.536-.3.435.435,0,0,1,.242.019c.282.115,1.079.481,1.284.945a.593.593,0,0,1,.009.6.449.449,0,0,1-.17.146,2.331,2.331,0,0,1-.479.138m2.027-3.863.005,0m-2.93,1.923a.994.994,0,0,1,.193-1.106c.487-.577.645-.654.849-.68l.563-.074a1.237,1.237,0,0,1,1.32-.067M42.2,242.77s.339-.783.37-.83a2.65,2.65,0,0,0,0-2.38c-.093-.232-.448.2-.466.221v0m3.642,1.051s-.1.454-.165.429-.252-.338-.252-.338l.2-.7.088-.862,0-.04.674-1.1a1.175,1.175,0,0,0-.15-.548,1.414,1.414,0,0,1-.331-.434c-.013-.1-.091-.419-.091-.419s-.5.4-.6.465a1.641,1.641,0,0,1-.569-.015.474.474,0,0,0-.375.17c-.056.111-.25.458-.3.532a1.856,1.856,0,0,0-.113.609.422.422,0,0,1-.086.232.959.959,0,0,0-.112.181c-.046.122.015.24.041.435a2.206,2.206,0,0,1-.037.615c-.025.1-.189.1-.226.093a1.351,1.351,0,0,0-.249.12s.045-.268.06-.335a4.387,4.387,0,0,0-.206-.58,10.269,10.269,0,0,1-.166-1.273,7.435,7.435,0,0,1,.237-.891,3.611,3.611,0,0,1,.274-.735,1.815,1.815,0,0,1,.194-.251h0a4.854,4.854,0,0,1,.426-.435,4.462,4.462,0,0,1,.746-.234,1.631,1.631,0,0,1,1.185.349s.47.02.606.315a3.488,3.488,0,0,1,.368.929c-.027.144-.113.293-.1.371a2.646,2.646,0,0,1-.078.652l-.017.045a.586.586,0,0,0-.05.277c.013.108.116.461.054.534s-.171.144-.176.212,0,.384-.1.465a.416.416,0,0,0-.151.26c0,.059.088.468-.048.643a.727.727,0,0,1-.131.137h0a.247.247,0,0,0-.158.037Zm-2.033-2.005s.23.813.658.925a2.109,2.109,0,0,0,1.208-.39m3.49,1.55c0-.007,0-.087,0-.087m-2.378-2.609a4.414,4.414,0,0,1,2.081,1.79,2.435,2.435,0,0,1,.3.781c0,.086,0,.12,0,.125h0m.613.675a2.144,2.144,0,0,0-.634-.644,3.909,3.909,0,0,0-.8-.447m-2.23.231s-.216.875.985,1.727m-3.115,2.564-1.234-.591m.738,12.725a1.225,1.225,0,0,0,.22-1.035c-.184-.78-.156-.952-.084-1.18.046-.145,1.022-1.307,1.687-2.523.071-.128.138-.258.2-.387a3.2,3.2,0,0,0,.4-1.559l.591-1.262.005-.013M42.1,259.919l-.181.96.376-1.006.7-1.764.855,2.323-.492-3.273-.032-.347a.713.713,0,0,0-.5.292,4.315,4.315,0,0,0-.381,1.067,1.539,1.539,0,0,1-.159.4h0c-.207.005-.187-.286-.187-.286l-.076-1.246a.6.6,0,0,1-.155-.174,1.443,1.443,0,0,1-.077-.739,3.406,3.406,0,0,1,.444-1.025c.085-.187.244-.687.391-1.176.175-.584.335-1.153.335-1.153a8.118,8.118,0,0,1,.337-1.614,1.98,1.98,0,0,1,.655-1.07,2.2,2.2,0,0,0,.253-.558m-1.91,9.041-.189,1.351m2.28-13a.985.985,0,0,1-.195.356c-.1.07-.581.7-.49,1.106s.3,1.117.3,1.117l.2-.023,1.84-.221a2.475,2.475,0,0,0,.28-.089,1.358,1.358,0,0,0,.515-.307c.227-.255.87-1.316.87-1.316m-8.628,13.09,2.872.943,5.367-1.526-3.06-.628-1.953.456-.195.046-3.031.709h0m0,0v.754l2.913.982L47.3,260.8v-.753m-5.367,1.526,0,.745m2.1-16.717a.28.28,0,0,1-.113-.278c.045-.162-.126-.467.008-.539.089-.05.1-.288.2-.463a.368.368,0,0,1,.246-.183c.357-.071.213-.41.476-.488s.5-.275.593-.27a4,4,0,0,0,.528-.157c.043-.007.157-.025.276-.038a.817.817,0,0,1,.336,0,3.137,3.137,0,0,0,.385.176,1.337,1.337,0,0,0,.281.088c.118.007.566.188.648.192s.351.022.322.126-.094.194-.038.221.229.119.214.177-.1.183-.085.253.192.318.222.4.045.213-.016.268-.124.1-.08.148a.18.18,0,0,1-.035.21c-.05.044-.117.17-.167.227a3.521,3.521,0,0,1-.268.347c-.073.055-.284.031-.312.122s-.318.181-.388.177-.437.232-.5.088a.908.908,0,0,1-.03-.485c.03-.091.14-.166.168-.237a.25.25,0,0,0-.012-.212c-.032-.036-.212-.19-.062-.342a4.189,4.189,0,0,0,.5-.854.408.408,0,0,0-.026-.343,4.708,4.708,0,0,0-.467-.274,3.552,3.552,0,0,0-.64-.122,1.385,1.385,0,0,0-.531.052c-.122.074-.423.186-.483.229s-.3.265-.3.265l-.335.286a1.868,1.868,0,0,0-.44,1.23,3.169,3.169,0,0,0,.035.626,1.46,1.46,0,0,0,.282.659c.065.081.557.461.557.461s.2.037.243.039a.352.352,0,0,1,.248.19c.062.133.208.662.507.573l.211-.2s.31.123.368.15.544.27,1.126-.566a3.42,3.42,0,0,0,.184-.3s.2-.514.419-.927c.051-.023.237-.14.3-.162a1.77,1.77,0,0,0,.874-1.108s0-.122-.005-.3m-.566,2.153c-.025.172-.285,1.138-.311,1.34a1.184,1.184,0,0,0,.047.652,3.88,3.88,0,0,1,.22,1.157,11.989,11.989,0,0,1-.244,1.415c-.017.078-.032.141-.045.192l-.051.223-.364.78s-.6,1.165-.705,1.434a3.019,3.019,0,0,0-.089,2.466l.2.733c.34,1.061.46,1.154.846,1.218m.972-3.849a13.708,13.708,0,0,1-.4,2.289,4.077,4.077,0,0,0-.371,1.136,3.373,3.373,0,0,1-.211.882,2.476,2.476,0,0,0-.171.416.819.819,0,0,0-.031.295c.026.277.042.509.243.535a1.881,1.881,0,0,0,.508-.042,2.184,2.184,0,0,0,.427.113.786.786,0,0,0,.421-.032c.1-.067.312-.14.4-.208s.352-.3.346-.47a3.14,3.14,0,0,0-.43-.778s-.021-.072-.047-.185a1.908,1.908,0,0,1-.008-1.062c.2-.393,2.357-3.4,2.211-5.534m1.261-.3a2.085,2.085,0,0,0-1.278.275h0a1.207,1.207,0,0,0-.3.295,21.53,21.53,0,0,1-2.6,2.327c-.3.242-.552.44-.695.553a4.247,4.247,0,0,0-.342.461,17.292,17.292,0,0,1,3.635-9.027m-5.688-3.5a2.23,2.23,0,0,1,.777-.6,7.934,7.934,0,0,1,4.373-.859m-2.005,2.526c.005-.07.6-1.939,1.765-2.418a1.146,1.146,0,0,1,.923-.039,2.907,2.907,0,0,1,1.748.45l.642-.2a1.408,1.408,0,0,1,1.644,1.364c0,.588-.8,1.337-.8,1.337l-.819.669a4.77,4.77,0,0,1-1.337,1.017,1.517,1.517,0,0,1-1.215.23,5.378,5.378,0,0,1-2.468-1.825m1.392,12.94a3.964,3.964,0,0,0,1.469,1.069M46.5,248l.189-.114M42.276,250s-.078-.974-.055-1.359c.012-.21.238-1.266.439-2.177m.358,3.036a1.58,1.58,0,0,0-.936,2.1m.136-.036c-.272.369-.253.336-.291.433a5.758,5.758,0,0,0-.157.7c0,.077-.016.243-.057.274s-.271.186-.3.152-.222-.321-.311-.339-.232-.033-.175.094-.355.062-.07.308l.284.246a1.4,1.4,0,0,0,.42.256.52.52,0,0,0,.558-.194m.1-1.937v0m1.051-.417a.519.519,0,0,0-.706.1c-.277.254-.335.305-.345.312h0m-.089,1.03c-.012.106-.1.5.131.53a.225.225,0,0,0,.234-.214,1.1,1.1,0,0,1,.144-.415m-.426.662s-.021.171-.05.347a1.454,1.454,0,0,1-.089.361,1.04,1.04,0,0,0-.134.512s.111.348.29.1l.18-.25.19-.307m1.777-14.6a.557.557,0,0,0,.3.114m-.107-.37s-.015.05.177.062m-3.465,4.2a1.67,1.67,0,0,0,.47-.182m-1.652-.613s.329-.446.49-.317m-.158.145.036.053m-.143,7.708-.1.088m-2.3-10.9-.074.109m6.561-1.109-.012.087m1.115.316-.03.134m.644,8.361.09.1m-.431-.056.783-.163m5.98-.432-.707,2.773m1.3-3.094c-4.458-1.194-1.547-4.128-1.09-4.558M37.715,239.1l.478.32m5.959-1.308a1.318,1.318,0,0,0,.57.173m.6.318a1.33,1.33,0,0,0,.57.172m-5.368,11.377s-.324-.085-.4-.217m-3.4-7.264.189-.024s.467.071.524.074.483.083.483.083c.041.117-.21.2-.21.2l-.454.075.141.23c.141.229-.169.413-.169.413.089.435-.188.567-.188.567a1.022,1.022,0,0,1-1.14-.134,1.635,1.635,0,0,0-.2-.1c-.3-.119-.22-.4-.226-.681a1.077,1.077,0,0,1,.187-.629,1.482,1.482,0,0,1,.447-.237l.312.082.306.082.008,0s.142.221.077.264-.309.152-.411.1l-.1-.054m6.059-4.372.281,1.086m11.976,19.082s-1.7-.326-1.77-3.048m-15.856-.121s1.583,1.678,2.1,1.739m.861-4.138c-.057.835-.119,1.439-.119,1.439a12.691,12.691,0,0,1-.739,2.7,4.986,4.986,0,0,0,1.226-.216c.591-.2.965-.656,1.524-.333m3.622-4.757a16.225,16.225,0,0,1,2.065-.324h0c.631-.057,1.012-.052,1.012-.052M45.4,252.1s-.022,1.812-.014,1.953a1.987,1.987,0,0,1-.121.977,1.8,1.8,0,0,0-.333.841,1.908,1.908,0,0,1-.011.566c-.032.089-.212.646-.212.646s-.073.462.354.515a2.9,2.9,0,0,0,1.238-.053c.226-.115.4-.343.341-.492s-.233-.251-.343-.395a.854.854,0,0,1-.2-.589,1.62,1.62,0,0,0,.067-.335,1.439,1.439,0,0,1,.075-.645c.1-.14.825-1.25.825-1.25a4.6,4.6,0,0,0,.469-2.021M41,239.77l-.141-.24c-.037-.065-.069-.122-.074-.137a.169.169,0,0,1,.015-.185c.057-.081.2-.018.217,0a1.75,1.75,0,0,0,.213.207c.113.092.1.006.194.432a.615.615,0,0,1,.019.22c-.032.22-.293.178-.574.365a.74.74,0,0,1-.765-.018s-.582-.548-.619-.6-.1-.049-.15.01-.021.064-.247.069a.373.373,0,0,1-.36-.2c-.032-.063.286-.194.286-.194a1.9,1.9,0,0,1,.7-.233c.058,0,.111-.011.161-.015a.878.878,0,0,1,.646.1l.326.193M25.741,251.9c-.025.013-.956-.2-.988-.329a.109.109,0,0,1,.018-.119,1.858,1.858,0,0,0,.26-.313,2.776,2.776,0,0,0,.125-.259c.133-.29.357-.786.357-.786.194-.5.162-.591.162-.591l.215-2.743a2.927,2.927,0,0,1,.763-1.945m4.766.124a15.816,15.816,0,0,1-2.952.134,9.216,9.216,0,0,1-1.178-.14,5.84,5.84,0,0,1-.626-.153c-.106-.031-.208-.067-.309-.106,0,0-.64.233-.839,1.859a13.189,13.189,0,0,1-.289,2.246,7.6,7.6,0,0,1-1.255,1.719.354.354,0,0,0,.052.517l.623.431m31.112-7.221a16.341,16.341,0,0,1,.815,3.988,20.7,20.7,0,0,1-.771,7.569c-.277,1.126.171,2.726.676,2.853,0,0-1.935.212-2.763.18-.351-.013-.391-.009-.78-.026a25.7,25.7,0,0,1-2.821-.2" fill="none" stroke="#1a1818" stroke-linecap="round" stroke-linejoin="round" stroke-width="0.275"/>
    <path id="Path_38" data-name="Path 38" d="M55.644,247.11a7.887,7.887,0,0,1,0,2.549c-.233,1.335.263,5.31.158,6.1" fill="none" stroke="#1a1818" stroke-linecap="round" stroke-linejoin="round" stroke-width="0.275"/>
  </g>
</svg>
